<?xml version="1.0" standalone="no"?>
<!DOCTYPE svg PUBLIC "-//W3C//DTD SVG 20010904//EN"
 "http://www.w3.org/TR/2001/REC-SVG-20010904/DTD/svg10.dtd">
<svg version="1.0" xmlns="http://www.w3.org/2000/svg"
 width="1000.000000pt" height="1000.000000pt" viewBox="0 0 1000.000000 1000.000000"
 preserveAspectRatio="xMidYMid meet">
<metadata>
Created by potrace 1.11, written by Peter Selinger 2001-2013
</metadata>
<g transform="translate(0.000000,1000.000000) scale(0.100000,-0.100000)"
fill="#000000" stroke="none">
<path d="M4608 8833 c6 -2 18 -2 25 0 6 3 1 5 -13 5 -14 0 -19 -2 -12 -5z"/>
<path d="M4602 8790 c0 -14 2 -19 5 -12 2 6 2 18 0 25 -3 6 -5 1 -5 -13z"/>
<path d="M4662 8790 c0 -14 2 -19 5 -12 2 6 2 18 0 25 -3 6 -5 1 -5 -13z"/>
<path d="M4611 8734 c0 -11 3 -14 6 -6 3 7 2 16 -1 19 -3 4 -6 -2 -5 -13z"/>
<path d="M4672 8730 c0 -14 2 -19 5 -12 2 6 2 18 0 25 -3 6 -5 1 -5 -13z"/>
<path d="M4622 8680 c0 -14 2 -19 5 -12 2 6 2 18 0 25 -3 6 -5 1 -5 -13z"/>
<path d="M4682 8670 c0 -14 2 -19 5 -12 2 6 2 18 0 25 -3 6 -5 1 -5 -13z"/>
<path d="M3965 8660 c3 -5 8 -10 11 -10 2 0 4 5 4 10 0 6 -5 10 -11 10 -5 0
-7 -4 -4 -10z"/>
<path d="M3923 8645 c-3 -9 -3 -19 1 -22 3 -4 6 1 6 10 0 8 6 18 13 20 9 4 9
6 -1 6 -7 1 -15 -6 -19 -14z"/>
<path d="M6722 8636 c7 -8 15 -12 17 -11 5 6 -10 25 -20 25 -5 0 -4 -6 3 -14z"/>
<path d="M4632 8620 c0 -14 2 -19 5 -12 2 6 2 18 0 25 -3 6 -5 1 -5 -13z"/>
<path d="M4692 8615 c0 -16 2 -22 5 -12 2 9 2 23 0 30 -3 6 -5 -1 -5 -18z"/>
<path d="M6716 8595 c-9 -26 -7 -32 5 -12 6 10 9 21 6 23 -2 3 -7 -2 -11 -11z"/>
<path d="M4641 8564 c0 -11 3 -14 6 -6 3 7 2 16 -1 19 -3 4 -6 -2 -5 -13z"/>
<path d="M4702 8560 c0 -14 2 -19 5 -12 2 6 2 18 0 25 -3 6 -5 1 -5 -13z"/>
<path d="M4652 8510 c0 -14 2 -19 5 -12 2 6 2 18 0 25 -3 6 -5 1 -5 -13z"/>
<path d="M4711 8504 c0 -11 3 -14 6 -6 3 7 2 16 -1 19 -3 4 -6 -2 -5 -13z"/>
<path d="M6676 8485 c-9 -26 -7 -32 5 -12 6 10 9 21 6 23 -2 3 -7 -2 -11 -11z"/>
<path d="M4662 8450 c0 -14 2 -19 5 -12 2 6 2 18 0 25 -3 6 -5 1 -5 -13z"/>
<path d="M4721 8444 c0 -11 3 -14 6 -6 3 7 2 16 -1 19 -3 4 -6 -2 -5 -13z"/>
<path d="M6596 8435 c-9 -26 -7 -32 5 -12 6 10 9 21 6 23 -2 3 -7 -2 -11 -11z"/>
<path d="M4060 8415 c0 -5 5 -17 10 -25 5 -8 10 -10 10 -5 0 6 -5 17 -10 25
-5 8 -10 11 -10 5z"/>
<path d="M4671 8394 c0 -11 3 -14 6 -6 3 7 2 16 -1 19 -3 4 -6 -2 -5 -13z"/>
<path d="M4732 8390 c0 -14 2 -19 5 -12 2 6 2 18 0 25 -3 6 -5 1 -5 -13z"/>
<path d="M6636 8375 c-9 -26 -7 -32 5 -12 6 10 9 21 6 23 -2 3 -7 -2 -11 -11z"/>
<path d="M3316 8371 c-4 -7 -2 -10 5 -9 6 2 14 -3 17 -11 3 -10 0 -12 -14 -7
-41 17 -126 18 -1206 22 l-1118 5 0 -2506 0 -2506 1088 3 c1056 3 1087 2 1068
-15 -15 -13 -11 -12 11 3 23 14 71 27 155 40 99 15 226 44 365 82 7 2 37 -24
67 -57 l55 -60 -267 -270 -267 -270 272 269 271 269 -49 56 c-27 31 -48 61
-47 66 1 6 52 31 113 56 178 74 302 143 448 252 93 69 263 231 328 312 l43 54
26 -22 25 -22 -22 26 -23 25 44 60 c39 54 152 236 159 257 1 4 27 -15 57 -43
51 -47 54 -52 41 -73 -14 -22 -14 -22 7 -4 17 15 25 17 44 7 22 -11 22 -11 3
5 -11 9 -19 20 -18 25 2 5 -3 7 -10 4 -7 -2 -37 18 -65 45 l-53 51 21 39 c11
22 24 43 30 46 6 4 8 10 5 15 -3 4 4 28 15 53 14 31 29 48 50 57 17 7 29 15
26 17 -2 3 -14 0 -25 -7 -12 -6 -21 -8 -21 -4 0 3 19 64 43 135 37 115 44 128
62 123 18 -4 18 -4 3 6 -24 15 -25 55 -2 46 14 -5 15 -4 5 8 -7 9 -10 24 -6
37 7 20 14 15 85 -56 45 -45 76 -84 73 -91 -4 -11 -10 -11 -33 1 -43 22 -51
17 -10 -5 27 -15 30 -19 15 -20 -17 0 -17 -2 -5 -10 12 -8 10 -10 -10 -11
l-25 -1 25 -8 c25 -8 25 -8 -5 -10 l-30 -2 30 -8 c17 -4 23 -8 15 -9 -9 -2 -5
-6 10 -13 l25 -10 -29 -21 c-57 -43 -70 -58 -23 -27 60 39 81 29 47 -22 l-22
-33 30 35 31 35 10 -25 c6 -15 10 -19 12 -10 1 8 5 2 9 -15 l8 -30 2 30 c1 26
3 27 10 10 l9 -20 0 20 c1 17 3 17 11 5 8 -12 10 -12 10 5 1 15 5 12 20 -15
11 -19 19 -31 20 -27 0 5 -5 17 -10 28 -13 23 5 63 24 56 7 -3 11 5 11 21 0
21 6 28 30 33 l30 7 -30 2 c-26 1 -27 3 -10 10 l20 9 -20 0 c-17 1 -17 3 -5
11 13 9 13 10 0 10 -8 0 -20 8 -27 18 -10 17 9 39 156 186 l168 168 33 -42
c18 -23 48 -70 67 -103 19 -34 31 -52 28 -40 -5 17 0 26 22 38 25 15 16 14
-21 -1 -8 -3 -22 9 -35 32 -21 35 -21 37 -4 57 18 19 17 19 -2 7 -19 -11 -27
-6 -89 56 -62 62 -67 70 -56 89 13 20 12 20 -8 2 -13 -12 -26 -16 -34 -11 -10
6 -11 5 -1 -8 7 -8 9 -19 5 -23 -4 -5 -1 -5 6 -1 8 5 27 -3 49 -19 l35 -28
-168 -168 c-162 -162 -169 -168 -181 -146 -8 15 -13 17 -13 7 -1 -10 -4 -9
-10 5 -5 11 -9 14 -9 8 -2 -27 -31 -13 -32 15 l-1 27 -7 -30 c-5 -24 -18 12
-64 185 -32 118 -60 224 -62 235 -3 11 -10 38 -17 61 -8 30 -9 81 -2 191 8
138 6 227 -10 450 -6 79 -5 82 16 86 l23 4 -22 2 c-17 1 -23 9 -27 34 -43 282
-79 444 -136 611 -16 49 -28 92 -25 94 3 3 -1 12 -8 21 -8 9 -28 52 -46 96
-66 163 -171 345 -292 507 -32 44 -59 87 -59 96 0 8 -3 12 -7 8 -4 -3 -61 47
-127 112 -67 65 -159 147 -205 182 -229 172 -507 301 -776 360 -70 15 -102 27
-115 42 -12 15 -19 18 -24 9z m-208 -899 c165 -37 284 -86 409 -169 188 -125
404 -422 486 -671 l27 -83 -23 -22 c-13 -12 -16 -16 -7 -9 9 6 21 12 27 12 11
0 46 -147 68 -293 16 -100 12 -127 -19 -127 -6 0 -66 55 -133 122 l-123 122
42 46 43 45 -45 -43 -45 -42 -225 222 c-124 123 -55 52 153 -157 l377 -380 0
-173 c0 -136 -3 -172 -12 -166 -10 6 -10 4 0 -7 14 -16 15 -88 1 -184 -5 -38
-11 -92 -14 -120 -6 -80 -32 -187 -47 -196 -9 -6 -9 -9 -1 -9 7 0 11 -6 9 -12
-3 -7 -17 -55 -32 -105 -15 -51 -31 -93 -36 -93 -4 0 -9 17 -10 38 l-1 37 -4
-37 c-4 -31 -8 -37 -31 -41 -21 -3 -19 -4 11 -6 20 0 37 -3 37 -5 0 -15 -69
-153 -110 -220 -63 -104 -125 -179 -197 -239 -50 -41 -59 -45 -65 -30 -6 15
-7 15 -7 -4 -2 -57 -242 -161 -473 -204 -102 -19 -160 -22 -616 -26 l-502 -5
0 928 c1 587 4 923 10 914 8 -13 10 -12 10 3 0 9 -4 17 -10 17 -6 0 -10 245
-10 701 l0 701 498 -5 c456 -4 505 -6 590 -25z m1002 -1378 c0 -22 -2 -25 -15
-14 -12 10 -13 16 -4 26 16 20 19 18 19 -12z m1044 -655 c2 -13 6 -31 9 -39 3
-8 32 -111 63 -229 56 -207 57 -214 39 -228 -18 -12 -26 -6 -101 69 l-82 83
16 80 c9 44 19 82 22 85 3 3 6 34 8 70 2 36 6 66 11 68 4 1 5 19 3 40 -5 39 7
40 12 1z m201 -501 c29 -13 55 -55 55 -87 0 -11 -12 -33 -26 -50 -54 -65 -154
-28 -154 57 0 67 64 108 125 80z"/>
<path d="M2234 7479 c-4 -7 -3 -9 3 -6 6 4 30 -10 54 -30 24 -21 35 -27 24
-14 -34 39 -73 63 -81 50z"/>
<path d="M2214 7449 c-3 -6 2 -18 12 -27 17 -16 17 -16 5 0 -7 9 -10 22 -6 28
3 5 4 10 1 10 -3 0 -8 -5 -12 -11z"/>
<path d="M2270 7385 c13 -14 26 -25 28 -25 3 0 -5 11 -18 25 -13 14 -26 25
-28 25 -3 0 5 -11 18 -25z"/>
<path d="M2360 7385 c13 -14 26 -25 28 -25 3 0 -5 11 -18 25 -13 14 -26 25
-28 25 -3 0 5 -11 18 -25z"/>
<path d="M2310 7356 c0 -3 54 -50 120 -106 66 -56 120 -99 120 -96 0 3 -54 50
-120 106 -66 56 -120 99 -120 96z"/>
<path d="M2420 7335 c13 -14 26 -25 28 -25 3 0 -5 11 -18 25 -13 14 -26 25
-28 25 -3 0 5 -11 18 -25z"/>
<path d="M2460 7306 c0 -2 41 -39 90 -81 50 -42 90 -74 90 -71 0 2 -40 39 -90
81 -49 42 -90 74 -90 71z"/>
<path d="M2974 7159 c-19 -22 -19 -22 3 -8 22 13 28 9 120 -81 l98 -95 -100
103 c-55 56 -100 102 -101 102 0 0 -9 -10 -20 -21z"/>
<path d="M2588 7120 l33 -35 19 25 c11 14 20 29 20 35 0 5 -8 -2 -17 -15 -9
-14 -18 -27 -20 -29 -2 -3 -18 9 -36 25 l-32 29 33 -35z"/>
<path d="M2910 7083 c-85 -90 -114 -123 -109 -123 3 0 41 38 83 85 43 47 76
85 74 85 -2 0 -24 -21 -48 -47z"/>
<path d="M2749 6898 c-24 -29 -49 -61 -57 -70 -9 -10 -13 -18 -10 -18 3 0 31
32 62 70 31 39 55 70 52 70 -2 0 -23 -24 -47 -52z"/>
<path d="M2659 6783 c-13 -16 -12 -17 4 -4 9 7 17 15 17 17 0 8 -8 3 -21 -13z"/>
<path d="M2097 6759 c7 -7 15 -10 18 -7 3 3 -2 9 -12 12 -14 6 -15 5 -6 -5z"/>
<path d="M2637 6753 c-13 -12 -7 -22 26 -43 l32 -22 -29 25 c-16 14 -25 30
-22 36 8 12 3 15 -7 4z"/>
<path d="M2150 6726 c0 -2 7 -7 16 -10 8 -3 12 -2 9 4 -6 10 -25 14 -25 6z"/>
<path d="M2210 6696 c0 -3 9 -10 20 -16 11 -6 20 -8 20 -6 0 3 -9 10 -20 16
-11 6 -20 8 -20 6z"/>
<path d="M2110 6686 c0 -3 14 -12 30 -21 17 -9 30 -13 30 -11 0 3 -13 12 -30
21 -16 9 -30 13 -30 11z"/>
<path d="M2700 6686 c0 -3 20 -19 45 -36 25 -17 45 -29 45 -26 0 3 -20 19 -45
36 -25 17 -45 29 -45 26z"/>
<path d="M2273 6656 c24 -19 14 -61 -11 -51 -14 5 -15 4 -4 -7 11 -11 16 -10
28 6 20 28 18 44 -8 56 -21 10 -22 10 -5 -4z"/>
<path d="M2180 6646 c0 -3 9 -10 20 -16 11 -6 20 -8 20 -6 0 3 -9 10 -20 16
-11 6 -20 8 -20 6z"/>
<path d="M2800 6616 c0 -3 20 -19 45 -36 25 -17 45 -29 45 -26 0 3 -20 19 -45
36 -25 17 -45 29 -45 26z"/>
<path d="M2900 6546 c0 -3 20 -19 45 -36 25 -17 45 -29 45 -26 0 3 -20 19 -45
36 -25 17 -45 29 -45 26z"/>
<path d="M3934 6468 l-29 -33 33 29 c30 28 37 36 29 36 -2 0 -16 -15 -33 -32z"/>
<path d="M3008 6467 c14 -16 82 -60 82 -52 0 2 -21 19 -47 36 -27 18 -42 26
-35 16z"/>
<path d="M3100 6406 c0 -3 20 -19 45 -36 25 -17 45 -29 45 -26 0 3 -20 19 -45
36 -25 17 -45 29 -45 26z"/>
<path d="M3200 6336 c0 -3 20 -19 45 -36 25 -17 45 -29 45 -26 0 3 -20 19 -45
36 -25 17 -45 29 -45 26z"/>
<path d="M3300 6266 c0 -3 20 -19 45 -36 25 -17 45 -29 45 -26 0 3 -20 19 -45
36 -25 17 -45 29 -45 26z"/>
<path d="M3400 6196 c0 -3 20 -19 45 -36 25 -17 45 -29 45 -26 0 3 -20 19 -45
36 -25 17 -45 29 -45 26z"/>
<path d="M3519 6110 c13 -11 31 -25 39 -29 13 -7 12 -12 -5 -37 -26 -37 -39
-67 -16 -34 10 13 26 32 35 42 17 17 15 19 -30 48 -26 18 -36 22 -23 10z"/>
<path d="M2675 6049 c-9 -17 -14 -33 -12 -35 2 -3 10 9 17 26 8 20 18 29 26
26 37 -15 47 -16 24 -2 -34 21 -37 20 -55 -15z"/>
<path d="M3600 6056 c0 -3 20 -19 45 -36 25 -17 45 -29 45 -26 0 3 -20 19 -45
36 -25 17 -45 29 -45 26z"/>
<path d="M2830 6010 c19 -11 40 -19 45 -19 6 0 -6 8 -25 19 -19 11 -39 19 -45
19 -5 0 6 -8 25 -19z"/>
<path d="M3700 5986 c0 -3 20 -19 45 -36 25 -17 45 -29 45 -26 0 3 -20 19 -45
36 -25 17 -45 29 -45 26z"/>
<path d="M2622 5932 c-28 -64 -72 -197 -71 -214 0 -7 15 30 33 82 18 52 41
113 50 134 9 22 15 41 12 43 -2 2 -13 -18 -24 -45z"/>
<path d="M2980 5940 c19 -11 40 -19 45 -19 6 0 -6 8 -25 19 -19 11 -39 19 -45
19 -5 0 6 -8 25 -19z"/>
<path d="M3475 5920 c-9 -16 -13 -30 -11 -30 3 0 12 14 21 30 9 17 13 30 11
30 -3 0 -12 -13 -21 -30z"/>
<path d="M3830 5897 c0 -2 11 -13 25 -25 14 -12 25 -18 25 -13 0 5 -11 16 -25
25 -14 9 -25 15 -25 13z"/>
<path d="M3130 5870 c19 -11 40 -19 45 -19 6 0 -6 8 -25 19 -19 11 -39 19 -45
19 -5 0 6 -8 25 -19z"/>
<path d="M3416 5813 c-40 -74 -43 -85 -22 -77 8 3 29 -2 46 -11 18 -9 34 -15
36 -12 2 2 -14 12 -36 22 -22 10 -40 20 -40 22 0 2 14 30 30 63 41 82 30 76
-14 -7z"/>
<path d="M3280 5800 c19 -11 40 -19 45 -19 6 0 -6 8 -25 19 -19 11 -39 19 -45
19 -5 0 6 -8 25 -19z"/>
<path d="M3800 5740 c-6 -11 -8 -20 -6 -20 3 0 10 9 16 20 6 11 8 20 6 20 -3
0 -10 -9 -16 -20z"/>
<path d="M4030 5756 c0 -2 14 -14 30 -26 17 -12 30 -19 30 -16 0 2 -13 14 -30
26 -16 12 -30 19 -30 16z"/>
<path d="M3356 5685 c-9 -26 -7 -32 5 -12 6 10 9 21 6 23 -2 3 -7 -2 -11 -11z"/>
<path d="M3570 5665 c25 -13 50 -24 55 -24 6 0 -10 11 -35 24 -25 13 -49 24
-55 24 -5 0 10 -11 35 -24z"/>
<path d="M2522 5620 c0 -14 2 -19 5 -12 2 6 2 18 0 25 -3 6 -5 1 -5 -13z"/>
<path d="M3727 5603 c-12 -12 -7 -19 15 -20 13 -1 18 1 13 5 -6 4 -13 11 -16
15 -3 4 -9 4 -12 0z"/>
<path d="M2548 5593 c7 -3 16 -2 19 1 4 3 -2 6 -13 5 -11 0 -14 -3 -6 -6z"/>
<path d="M2588 5583 c7 -3 16 -2 19 1 4 3 -2 6 -13 5 -11 0 -14 -3 -6 -6z"/>
<path d="M3306 5555 c-9 -26 -7 -32 5 -12 6 10 9 21 6 23 -2 3 -7 -2 -11 -11z"/>
<path d="M3706 5555 c-9 -26 -7 -32 5 -12 6 10 9 21 6 23 -2 3 -7 -2 -11 -11z"/>
<path d="M2698 5553 c7 -3 16 -2 19 1 4 3 -2 6 -13 5 -11 0 -14 -3 -6 -6z"/>
<path d="M2738 5543 c7 -3 16 -2 19 1 4 3 -2 6 -13 5 -11 0 -14 -3 -6 -6z"/>
<path d="M3860 5530 c19 -11 40 -19 45 -19 6 0 -6 8 -25 19 -19 11 -39 19 -45
19 -5 0 6 -8 25 -19z"/>
<path d="M2848 5513 c7 -3 16 -2 19 1 4 3 -2 6 -13 5 -11 0 -14 -3 -6 -6z"/>
<path d="M3286 5494 c-4 -14 -5 -28 -3 -31 3 -2 8 8 11 23 4 14 5 28 3 31 -3
2 -8 -8 -11 -23z"/>
<path d="M3686 5505 c-9 -26 -7 -32 5 -12 6 10 9 21 6 23 -2 3 -7 -2 -11 -11z"/>
<path d="M2958 5483 c7 -3 16 -2 19 1 4 3 -2 6 -13 5 -11 0 -14 -3 -6 -6z"/>
<path d="M2998 5473 c7 -3 16 -2 19 1 4 3 -2 6 -13 5 -11 0 -14 -3 -6 -6z"/>
<path d="M4010 5460 c19 -11 40 -19 45 -19 6 0 -6 8 -25 19 -19 11 -39 19 -45
19 -5 0 6 -8 25 -19z"/>
<path d="M3108 5443 c7 -3 16 -2 19 1 4 3 -2 6 -13 5 -11 0 -14 -3 -6 -6z"/>
<path d="M3148 5433 c7 -3 16 -2 19 1 4 3 -2 6 -13 5 -11 0 -14 -3 -6 -6z"/>
<path d="M3238 5410 c18 -8 21 -15 17 -37 l-5 -28 10 25 c18 39 17 42 -15 46
-27 3 -28 3 -7 -6z"/>
<path d="M3368 5373 c7 -3 16 -2 19 1 4 3 -2 6 -13 5 -11 0 -14 -3 -6 -6z"/>
<path d="M3408 5363 c7 -3 16 -2 19 1 4 3 -2 6 -13 5 -11 0 -14 -3 -6 -6z"/>
<path d="M3625 5319 c-8 -36 -5 -42 13 -23 7 8 9 14 3 14 -5 0 -7 9 -4 20 3
11 3 20 0 20 -3 0 -8 -14 -12 -31z"/>
<path d="M3241 5324 c0 -11 3 -14 6 -6 3 7 2 16 -1 19 -3 4 -6 -2 -5 -13z"/>
<path d="M3518 5333 c7 -3 16 -2 19 1 4 3 -2 6 -13 5 -11 0 -14 -3 -6 -6z"/>
<path d="M3558 5323 c7 -3 16 -2 19 1 4 3 -2 6 -13 5 -11 0 -14 -3 -6 -6z"/>
<path d="M3668 5293 c7 -3 16 -2 19 1 4 3 -2 6 -13 5 -11 0 -14 -3 -6 -6z"/>
<path d="M3231 5274 c0 -11 3 -14 6 -6 3 7 2 16 -1 19 -3 4 -6 -2 -5 -13z"/>
<path d="M3708 5283 c7 -3 16 -2 19 1 4 3 -2 6 -13 5 -11 0 -14 -3 -6 -6z"/>
<path d="M3611 5254 c0 -11 3 -14 6 -6 3 7 2 16 -1 19 -3 4 -6 -2 -5 -13z"/>
<path d="M3818 5253 c7 -3 16 -2 19 1 4 3 -2 6 -13 5 -11 0 -14 -3 -6 -6z"/>
<path d="M3222 5220 c0 -14 2 -19 5 -12 2 6 2 18 0 25 -3 6 -5 1 -5 -13z"/>
<path d="M3928 5223 c7 -3 16 -2 19 1 4 3 -2 6 -13 5 -11 0 -14 -3 -6 -6z"/>
<path d="M3601 5204 c0 -11 3 -14 6 -6 3 7 2 16 -1 19 -3 4 -6 -2 -5 -13z"/>
<path d="M3968 5213 c7 -3 16 -2 19 1 4 3 -2 6 -13 5 -11 0 -14 -3 -6 -6z"/>
<path d="M4000 5190 c0 -11 2 -20 4 -20 2 0 6 9 9 20 3 11 1 20 -4 20 -5 0 -9
-9 -9 -20z"/>
<path d="M3212 5155 c0 -16 2 -22 5 -12 2 9 2 23 0 30 -3 6 -5 -1 -5 -18z"/>
<path d="M3588 5145 c-3 -14 -1 -28 3 -31 5 -3 9 9 9 25 0 38 -6 40 -12 6z"/>
<path d="M2043 5080 c0 -36 2 -50 4 -32 2 17 2 47 0 65 -2 17 -4 3 -4 -33z"/>
<path d="M2108 5133 c12 -2 30 -2 40 0 9 3 -1 5 -23 4 -22 0 -30 -2 -17 -4z"/>
<path d="M2228 5123 c12 -2 30 -2 40 0 9 3 -1 5 -23 4 -22 0 -30 -2 -17 -4z"/>
<path d="M2333 5113 c15 -2 37 -2 50 0 12 2 0 4 -28 4 -27 0 -38 -2 -22 -4z"/>
<path d="M2448 5103 c12 -2 30 -2 40 0 9 3 -1 5 -23 4 -22 0 -30 -2 -17 -4z"/>
<path d="M3200 5081 c0 -28 -3 -30 -42 -34 l-43 -4 48 -1 47 -2 0 35 c0 19 -2
35 -5 35 -3 0 -5 -13 -5 -29z"/>
<path d="M2568 5093 c12 -2 30 -2 40 0 9 3 -1 5 -23 4 -22 0 -30 -2 -17 -4z"/>
<path d="M3582 5075 c0 -16 2 -22 5 -12 2 9 2 23 0 30 -3 6 -5 -1 -5 -18z"/>
<path d="M3981 5084 c0 -11 3 -14 6 -6 3 7 2 16 -1 19 -3 4 -6 -2 -5 -13z"/>
<path d="M2818 5073 c6 -2 18 -2 25 0 6 3 1 5 -13 5 -14 0 -19 -2 -12 -5z"/>
<path d="M2908 5063 c12 -2 30 -2 40 0 9 3 -1 5 -23 4 -22 0 -30 -2 -17 -4z"/>
<path d="M3028 5053 c12 -2 30 -2 40 0 9 3 -1 5 -23 4 -22 0 -30 -2 -17 -4z"/>
<path d="M3248 5033 c12 -2 30 -2 40 0 9 3 -1 5 -23 4 -22 0 -30 -2 -17 -4z"/>
<path d="M3368 5023 c12 -2 30 -2 40 0 9 3 -1 5 -23 4 -22 0 -30 -2 -17 -4z"/>
<path d="M3483 5013 c9 -2 25 -2 35 0 9 3 1 5 -18 5 -19 0 -27 -2 -17 -5z"/>
<path d="M3570 5008 c0 -5 18 -8 40 -8 22 0 40 2 40 4 0 2 -18 6 -40 8 -22 2
-40 0 -40 -4z"/>
<path d="M3708 4993 c12 -2 30 -2 40 0 9 3 -1 5 -23 4 -22 0 -30 -2 -17 -4z"/>
<path d="M3823 4983 c9 -2 25 -2 35 0 9 3 1 5 -18 5 -19 0 -27 -2 -17 -5z"/>
<path d="M3798 4723 c12 -2 30 -2 40 0 9 3 -1 5 -23 4 -22 0 -30 -2 -17 -4z"/>
<path d="M3678 4713 c12 -2 32 -2 45 0 12 2 2 4 -23 4 -25 0 -35 -2 -22 -4z"/>
<path d="M3565 4700 c3 -5 12 -7 20 -3 21 7 19 13 -6 13 -11 0 -18 -4 -14 -10z"/>
<path d="M3458 4693 c12 -2 30 -2 40 0 9 3 -1 5 -23 4 -22 0 -30 -2 -17 -4z"/>
<path d="M2042 4633 l-2 -63 33 1 c29 2 30 2 5 6 -25 4 -27 8 -31 61 l-3 57
-2 -62z"/>
<path d="M3338 4683 c12 -2 32 -2 45 0 12 2 2 4 -23 4 -25 0 -35 -2 -22 -4z"/>
<path d="M3243 4673 c9 -2 25 -2 35 0 9 3 1 5 -18 5 -19 0 -27 -2 -17 -5z"/>
<path d="M3582 4650 c0 -19 2 -27 5 -17 2 9 2 25 0 35 -3 9 -5 1 -5 -18z"/>
<path d="M3003 4653 c9 -2 25 -2 35 0 9 3 1 5 -18 5 -19 0 -27 -2 -17 -5z"/>
<path d="M2893 4643 c9 -2 25 -2 35 0 9 3 1 5 -18 5 -19 0 -27 -2 -17 -5z"/>
<path d="M2773 4633 c9 -2 25 -2 35 0 9 3 1 5 -18 5 -19 0 -27 -2 -17 -5z"/>
<path d="M2648 4623 c7 -3 16 -2 19 1 4 3 -2 6 -13 5 -11 0 -14 -3 -6 -6z"/>
<path d="M2538 4613 c12 -2 30 -2 40 0 9 3 -1 5 -23 4 -22 0 -30 -2 -17 -4z"/>
<path d="M2423 4603 c15 -2 37 -2 50 0 12 2 0 4 -28 4 -27 0 -38 -2 -22 -4z"/>
<path d="M2318 4593 c12 -2 30 -2 40 0 9 3 -1 5 -23 4 -22 0 -30 -2 -17 -4z"/>
<path d="M2198 4583 c12 -2 30 -2 40 0 9 3 -1 5 -23 4 -22 0 -30 -2 -17 -4z"/>
<path d="M3602 4520 c0 -14 2 -19 5 -12 2 6 2 18 0 25 -3 6 -5 1 -5 -13z"/>
<path d="M5141 5225 c0 -5 8 -26 19 -45 11 -19 19 -30 19 -25 0 6 -8 26 -19
45 -11 19 -19 31 -19 25z"/>
<path d="M5211 5075 c0 -5 8 -26 19 -45 11 -19 19 -30 19 -25 0 6 -8 26 -19
45 -11 19 -19 31 -19 25z"/>
<path d="M5325 8360 l-30 -8 33 -1 c17 0 32 4 32 9 0 6 -1 9 -2 9 -2 -1 -16
-5 -33 -9z"/>
<path d="M4020 8355 c0 -5 5 -17 10 -25 5 -8 10 -10 10 -5 0 6 -5 17 -10 25
-5 8 -10 11 -10 5z"/>
<path d="M7301 8333 c-10 -26 -10 -27 4 -9 8 11 21 23 27 28 10 6 9 8 -3 8 -9
0 -21 -12 -28 -27z"/>
<path d="M4681 8334 c0 -11 3 -14 6 -6 3 7 2 16 -1 19 -3 4 -6 -2 -5 -13z"/>
<path d="M4742 8330 c0 -14 2 -19 5 -12 2 6 2 18 0 25 -3 6 -5 1 -5 -13z"/>
<path d="M7355 8325 c0 -13 3 -21 8 -18 4 2 7 10 7 18 0 8 -3 16 -7 18 -5 3
-8 -5 -8 -18z"/>
<path d="M6556 8325 c-9 -26 -7 -32 5 -12 6 10 9 21 6 23 -2 3 -7 -2 -11 -11z"/>
<path d="M4106 8290 c3 -14 11 -32 16 -40 6 -10 7 -7 2 10 -3 14 -11 32 -16
40 -6 10 -7 7 -2 -10z"/>
<path d="M4698 8303 c6 -2 18 -2 25 0 6 3 1 5 -13 5 -14 0 -19 -2 -12 -5z"/>
<path d="M7270 8280 c-6 -11 -8 -20 -6 -20 3 0 10 9 16 20 6 11 8 20 6 20 -3
0 -10 -9 -16 -20z"/>
<path d="M6596 8265 c-9 -26 -7 -32 5 -12 6 10 9 21 6 23 -2 3 -7 -2 -11 -11z"/>
<path d="M7325 8260 c-3 -6 -53 -10 -113 -10 -152 0 -355 -26 -507 -65 -94
-24 -132 -30 -137 -22 -6 9 -8 9 -8 0 0 -7 -60 -41 -132 -76 -73 -35 -168 -89
-210 -120 -43 -31 -78 -54 -78 -52 0 15 -201 -212 -251 -283 -111 -159 -210
-389 -255 -589 -13 -59 -23 -83 -34 -83 -12 0 -12 -2 -2 -9 11 -6 10 -27 -2
-113 -9 -58 -16 -128 -16 -156 0 -38 -4 -54 -17 -61 -10 -6 -12 -11 -5 -11 8
0 12 -22 12 -75 l0 -75 84 0 c58 0 86 -4 89 -12 4 -10 6 -10 6 0 1 9 39 12
156 12 l156 0 -16 -30 c-8 -16 -15 -33 -15 -37 1 -4 10 9 21 30 11 20 24 37
30 37 5 0 32 -11 59 -25 28 -14 50 -23 50 -20 0 2 -17 13 -37 24 l-38 20 158
1 c124 0 157 -3 151 -12 -4 -7 -16 -25 -26 -40 -11 -16 -17 -28 -14 -28 3 0
18 18 32 40 15 22 33 40 40 40 8 0 14 8 14 18 0 9 12 35 26 57 l25 40 -25 -30
-26 -30 5 50 c36 323 113 521 262 672 39 40 79 73 88 73 9 0 28 -7 43 -16 26
-16 26 -16 -3 8 l-29 26 63 31 c105 54 198 73 346 74 143 1 215 -13 321 -62
78 -37 184 -136 234 -220 52 -88 118 -284 90 -266 -5 3 -3 -7 5 -22 22 -42 20
-180 -3 -201 -9 -10 -13 -14 -8 -9 24 18 29 4 23 -68 -6 -71 -41 -196 -71
-253 -13 -25 -13 -25 -50 40 -20 37 -43 72 -51 78 -9 7 6 -22 31 -63 34 -55
45 -82 40 -99 -19 -73 -286 -377 -393 -447 -23 -16 -39 -32 -35 -36 4 -4 -2
-5 -13 -2 -12 4 -39 -4 -65 -18 -55 -29 -45 -33 11 -4 23 11 43 18 45 16 6 -6
-92 -83 -241 -191 -66 -47 -124 -90 -130 -94 -5 -4 -75 -57 -155 -116 -148
-111 -182 -138 -235 -181 -16 -14 -38 -25 -50 -25 -12 0 -16 -3 -9 -8 7 -4
-38 -50 -115 -117 -69 -60 -128 -111 -132 -113 -4 -2 -9 5 -12 15 -3 13 -5 11
-6 -7 -1 -31 -136 -170 -166 -170 -13 0 -16 -3 -8 -8 9 -6 -7 -32 -57 -90 -38
-45 -75 -91 -83 -103 -13 -18 -18 -19 -37 -9 -12 6 -24 9 -28 6 -3 -3 -1 -6 4
-6 5 0 15 -4 23 -9 12 -8 10 -16 -13 -50 -28 -40 -43 -48 -62 -33 -5 4 -2 0 6
-8 15 -13 14 -19 -13 -63 l-30 -48 -39 38 c-36 35 -37 38 -20 56 16 19 16 19
-5 6 -22 -13 -30 -7 -190 151 l-168 165 168 -171 168 -171 -37 -28 c-30 -23
-38 -26 -45 -13 -4 8 -18 26 -29 39 -15 17 -14 13 4 -16 l26 -40 -22 -18 -23
-18 28 13 c16 7 45 27 65 45 l36 33 39 -39 39 -39 -28 -48 c-15 -27 -32 -52
-37 -55 -5 -3 -8 -9 -6 -13 3 -10 -53 -126 -61 -126 -4 0 -15 18 -25 40 -10
22 -20 38 -22 36 -3 -2 5 -22 16 -45 12 -22 21 -46 21 -53 0 -14 -51 -150 -60
-158 -3 -3 -5 -11 -6 -17 -4 -49 -4 -49 -15 -33 -9 13 -10 12 -5 -3 3 -9 -6
-65 -19 -123 -23 -97 -55 -321 -55 -386 l0 -28 373 0 c335 -1 369 -2 345 -16
-16 -8 -28 -17 -28 -20 0 -3 16 3 36 15 23 14 52 21 87 21 44 0 55 -4 75 -27
l23 -28 -17 27 -16 28 1283 2 1284 3 3 60 c2 33 9 63 15 67 9 6 9 8 0 8 -10 0
-13 72 -13 325 l0 325 -487 0 c-269 0 -739 0 -1045 0 -551 0 -558 0 -600 21
-24 12 -45 23 -47 25 -14 12 161 224 185 224 8 0 13 4 10 9 -7 10 95 108 206
199 58 47 85 62 110 63 28 1 30 2 10 8 -22 6 -17 11 55 63 l78 57 6 -57 6 -57
1 62 2 61 188 126 c115 78 197 126 212 126 17 0 21 3 12 9 -10 6 17 29 90 81
57 41 129 93 160 117 31 24 59 43 62 43 2 0 7 -8 9 -17 2 -10 3 -8 2 5 -1 13
6 28 16 35 9 7 59 49 109 92 180 156 342 360 440 553 23 45 45 82 50 82 5 0 7
7 4 14 -3 8 1 28 10 43 24 43 64 194 82 312 24 154 22 412 -4 561 -39 215
-119 419 -234 593 -79 118 -263 303 -378 378 -245 162 -530 255 -835 275 -57
4 -102 11 -99 15 3 5 3 9 0 9 -3 0 -8 -4 -11 -10z m-496 -4116 c2 -2 -17 -4
-43 -4 -44 0 -46 1 -36 20 10 19 12 19 43 4 18 -9 34 -18 36 -20z"/>
<path d="M4060 8245 c0 -5 5 -17 10 -25 5 -8 10 -10 10 -5 0 6 -5 17 -10 25
-5 8 -10 11 -10 5z"/>
<path d="M6516 8215 c-9 -26 -7 -32 5 -12 6 10 9 21 6 23 -2 3 -7 -2 -11 -11z"/>
<path d="M4145 8183 c4 -16 1 -23 -16 -28 -13 -5 -25 -2 -31 6 -8 11 -9 11 -5
-1 5 -20 28 -23 51 -7 16 11 17 17 7 33 -11 18 -12 18 -6 -3z"/>
<path d="M6500 8166 c0 -8 4 -17 9 -20 5 -4 7 3 4 14 -6 23 -13 26 -13 6z"/>
<path d="M4963 8113 c9 -2 25 -2 35 0 9 3 1 5 -18 5 -19 0 -27 -2 -17 -5z"/>
<path d="M5643 8113 c9 -2 25 -2 35 0 9 3 1 5 -18 5 -19 0 -27 -2 -17 -5z"/>
<path d="M4888 8103 c6 -2 18 -2 25 0 6 3 1 5 -13 5 -14 0 -19 -2 -12 -5z"/>
<path d="M5718 8103 c6 -2 18 -2 25 0 6 3 1 5 -13 5 -14 0 -19 -2 -12 -5z"/>
<path d="M4818 8093 c6 -2 18 -2 25 0 6 3 1 5 -13 5 -14 0 -19 -2 -12 -5z"/>
<path d="M5033 8065 c0 -22 2 -30 4 -17 2 12 2 30 0 40 -3 9 -5 -1 -4 -23z"/>
<path d="M5788 8093 c6 -2 18 -2 25 0 6 3 1 5 -13 5 -14 0 -19 -2 -12 -5z"/>
<path d="M4758 8083 c6 -2 18 -2 25 0 6 3 1 5 -13 5 -14 0 -19 -2 -12 -5z"/>
<path d="M5848 8083 c6 -2 18 -2 25 0 6 3 1 5 -13 5 -14 0 -19 -2 -12 -5z"/>
<path d="M4698 8073 c6 -2 18 -2 25 0 6 3 1 5 -13 5 -14 0 -19 -2 -12 -5z"/>
<path d="M5592 8050 c0 -19 2 -27 5 -17 2 9 2 25 0 35 -3 9 -5 1 -5 -18z"/>
<path d="M5908 8073 c6 -2 18 -2 25 0 6 3 1 5 -13 5 -14 0 -19 -2 -12 -5z"/>
<path d="M4648 8063 c6 -2 18 -2 25 0 6 3 1 5 -13 5 -14 0 -19 -2 -12 -5z"/>
<path d="M5958 8063 c7 -3 16 -2 19 1 4 3 -2 6 -13 5 -11 0 -14 -3 -6 -6z"/>
<path d="M4598 8053 c7 -3 16 -2 19 1 4 3 -2 6 -13 5 -11 0 -14 -3 -6 -6z"/>
<path d="M4558 8043 c7 -3 16 -2 19 1 4 3 -2 6 -13 5 -11 0 -14 -3 -6 -6z"/>
<path d="M6058 8043 c7 -3 16 -2 19 1 4 3 -2 6 -13 5 -11 0 -14 -3 -6 -6z"/>
<path d="M4465 8020 c-3 -6 1 -7 9 -4 18 7 21 14 7 14 -6 0 -13 -4 -16 -10z"/>
<path d="M6140 8026 c0 -2 7 -7 16 -10 8 -3 12 -2 9 4 -6 10 -25 14 -25 6z"/>
<path d="M6151 7984 c0 -11 3 -14 6 -6 3 7 2 16 -1 19 -3 4 -6 -2 -5 -13z"/>
<path d="M5042 7950 c0 -19 2 -27 5 -17 2 9 2 25 0 35 -3 9 -5 1 -5 -18z"/>
<path d="M4481 7954 c0 -11 3 -14 6 -6 3 7 2 16 -1 19 -3 4 -6 -2 -5 -13z"/>
<path d="M5582 7930 c0 -19 2 -27 5 -17 2 9 2 25 0 35 -3 9 -5 1 -5 -18z"/>
<path d="M5053 7835 c0 -22 2 -30 4 -17 2 12 2 30 0 40 -3 9 -5 -1 -4 -23z"/>
<path d="M4511 7844 c0 -11 3 -14 6 -6 3 7 2 16 -1 19 -3 4 -6 -2 -5 -13z"/>
<path d="M5573 7820 c0 -25 2 -35 4 -22 2 12 2 32 0 45 -2 12 -4 2 -4 -23z"/>
<path d="M4521 7804 c0 -11 3 -14 6 -6 3 7 2 16 -1 19 -3 4 -6 -2 -5 -13z"/>
<path d="M5063 7720 c0 -25 2 -35 4 -22 2 12 2 32 0 45 -2 12 -4 2 -4 -23z"/>
<path d="M5563 7710 c0 -25 2 -35 4 -22 2 12 2 32 0 45 -2 12 -4 2 -4 -23z"/>
<path d="M4551 7694 c0 -11 3 -14 6 -6 3 7 2 16 -1 19 -3 4 -6 -2 -5 -13z"/>
<path d="M5072 7610 c0 -19 2 -27 5 -17 2 9 2 25 0 35 -3 9 -5 1 -5 -18z"/>
<path d="M5548 7590 c-3 -16 -1 -30 4 -30 4 0 8 14 8 30 0 17 -2 30 -4 30 -2
0 -6 -13 -8 -30z"/>
<path d="M5082 7490 c0 -19 2 -27 5 -17 2 9 2 25 0 35 -3 9 -5 1 -5 -18z"/>
<path d="M5543 7475 c0 -22 2 -30 4 -17 2 12 2 30 0 40 -3 9 -5 -1 -4 -23z"/>
<path d="M5093 7380 c0 -25 2 -35 4 -22 2 12 2 32 0 45 -2 12 -4 2 -4 -23z"/>
<path d="M5533 7360 c0 -25 2 -35 4 -22 2 12 2 32 0 45 -2 12 -4 2 -4 -23z"/>
<path d="M5103 7265 c0 -22 2 -30 4 -17 2 12 2 30 0 40 -3 9 -5 -1 -4 -23z"/>
<path d="M5523 7250 c0 -25 2 -35 4 -22 2 12 2 32 0 45 -2 12 -4 2 -4 -23z"/>
<path d="M6947 7242 c21 -18 21 -21 6 -42 -9 -13 -11 -20 -5 -16 7 4 16 15 22
26 8 14 4 21 -18 35 l-27 16 22 -19z"/>
<path d="M5112 7150 c0 -19 2 -27 5 -17 2 9 2 25 0 35 -3 9 -5 1 -5 -18z"/>
<path d="M6953 6498 l-682 -682 -38 34 c-21 19 -7 2 32 -38 38 -39 72 -72 74
-72 3 0 -10 16 -29 35 l-34 36 542 541 542 542 46 -44 c25 -25 82 -89 126
-142 45 -54 83 -98 85 -98 9 0 -95 125 -171 206 l-79 86 129 129 c71 71 134
129 140 129 7 0 36 -29 65 -64 30 -36 60 -67 67 -70 8 -3 -19 30 -59 74 -39
44 -72 80 -73 80 -1 0 -308 -307 -683 -682z"/>
<path d="M5513 7135 c0 -22 2 -30 4 -17 2 12 2 30 0 40 -3 9 -5 -1 -4 -23z"/>
<path d="M6890 7110 c-12 -16 -19 -30 -16 -30 2 0 14 14 26 30 12 17 19 30 16
30 -2 0 -14 -13 -26 -30z"/>
<path d="M5123 7035 c0 -22 2 -30 4 -17 2 12 2 30 0 40 -3 9 -5 -1 -4 -23z"/>
<path d="M5502 7023 c-1 -17 -5 -38 -8 -47 -5 -13 1 -16 37 -14 36 1 38 2 12
5 -29 4 -32 7 -36 46 -3 33 -4 35 -5 10z"/>
<path d="M6820 7010 c-12 -16 -19 -30 -16 -30 2 0 14 14 26 30 12 17 19 30 16
30 -2 0 -14 -13 -26 -30z"/>
<path d="M7824 6957 c27 -31 51 -57 53 -57 7 0 -76 98 -90 107 -7 4 10 -19 37
-50z"/>
<path d="M5090 6970 l-35 -7 37 -2 36 -1 7 -87 c3 -49 11 -99 16 -113 8 -21 8
-18 5 15 -16 143 -18 185 -7 185 6 0 11 4 11 8 0 10 -25 10 -70 2z"/>
<path d="M5248 6973 c39 -2 105 -2 145 0 39 1 7 3 -73 3 -80 0 -112 -2 -72 -3z"/>
<path d="M6744 6903 c-67 -93 -86 -123 -71 -117 7 2 29 30 49 62 20 31 46 72
58 90 39 57 15 34 -36 -35z"/>
<path d="M5003 6953 c9 -2 23 -2 30 0 6 3 -1 5 -18 5 -16 0 -22 -2 -12 -5z"/>
<path d="M5493 6905 c0 -27 2 -38 4 -22 2 15 2 37 0 50 -2 12 -4 0 -4 -28z"/>
<path d="M5483 6795 c0 -22 2 -30 4 -17 2 12 2 30 0 40 -3 9 -5 -1 -4 -23z"/>
<path d="M6610 6710 c-12 -16 -19 -30 -16 -30 2 0 14 14 26 30 12 17 19 30 16
30 -2 0 -14 -13 -26 -30z"/>
<path d="M5149 6692 c5 -34 6 -35 9 -8 2 16 0 32 -5 37 -5 5 -7 -7 -4 -29z"/>
<path d="M5472 6668 c-2 -46 -1 -48 26 -47 22 1 23 2 5 6 -18 3 -23 13 -26 46
l-4 42 -1 -47z"/>
<path d="M6550 6625 c-17 -25 -29 -45 -26 -45 3 0 19 20 36 45 17 25 29 45 26
45 -3 0 -19 -20 -36 -45z"/>
<path d="M7813 6609 c-24 -17 -43 -32 -43 -35 0 -3 20 9 45 26 25 17 45 33 45
35 0 7 -2 6 -47 -26z"/>
<path d="M5157 6588 c8 -57 13 -61 13 -10 0 22 -4 43 -9 46 -5 4 -7 -12 -4
-36z"/>
<path d="M5463 6560 c0 -25 2 -35 4 -22 2 12 2 32 0 45 -2 12 -4 2 -4 -23z"/>
<path d="M7620 6596 c0 -2 8 -10 18 -17 15 -13 16 -12 3 4 -13 16 -21 21 -21
13z"/>
<path d="M7721 6545 l-34 -24 -19 22 c-16 18 -15 16 2 -11 21 -31 22 -31 38
-15 9 10 26 26 37 36 27 24 16 20 -24 -8z"/>
<path d="M5173 6460 c0 -25 2 -35 4 -22 2 12 2 32 0 45 -2 12 -4 2 -4 -23z"/>
<path d="M5453 6450 c0 -25 2 -35 4 -22 2 12 2 32 0 45 -2 12 -4 2 -4 -23z"/>
<path d="M6220 6396 c0 -3 9 -10 20 -16 11 -6 20 -8 20 -6 0 3 -9 10 -20 16
-11 6 -20 8 -20 6z"/>
<path d="M5182 6350 c0 -19 2 -27 5 -17 2 9 2 25 0 35 -3 9 -5 1 -5 -18z"/>
<path d="M5438 6329 c-2 -22 -1 -42 2 -44 4 -2 7 16 9 41 3 55 -6 58 -11 3z"/>
<path d="M6285 6355 c11 -9 27 -20 35 -25 12 -7 13 -12 2 -29 -25 -42 -2 -20
28 27 17 26 22 36 11 24 l-21 -24 -37 22 c-21 12 -29 14 -18 5z"/>
<path d="M7279 6353 c-13 -16 -12 -17 4 -4 16 13 21 21 13 21 -2 0 -10 -8 -17
-17z"/>
<path d="M5711 6344 c0 -11 3 -14 6 -6 3 7 2 16 -1 19 -3 4 -6 -2 -5 -13z"/>
<path d="M5977 6285 c-24 -50 -20 -58 4 -12 11 22 19 41 17 43 -3 2 -12 -12
-21 -31z"/>
<path d="M5192 6235 l-2 -40 125 0 125 0 -1 30 c-1 24 -3 25 -6 8 -4 -22 -8
-23 -118 -23 l-114 0 -4 33 c-3 30 -4 29 -5 -8z"/>
<path d="M6270 6225 c-17 -25 -29 -45 -26 -45 3 0 19 20 36 45 17 25 29 45 26
45 -3 0 -19 -20 -36 -45z"/>
<path d="M5681 6234 c0 -11 3 -14 6 -6 3 7 2 16 -1 19 -3 4 -6 -2 -5 -13z"/>
<path d="M9040 6233 c-14 -7 -18 -13 -10 -13 17 0 47 17 40 23 -3 2 -16 -2
-30 -10z"/>
<path d="M9092 6243 c18 -5 31 -30 22 -44 -3 -5 0 -9 5 -9 14 0 14 16 1 41 -6
10 -18 18 -28 18 -15 -1 -15 -2 0 -6z"/>
<path d="M5671 6194 c0 -11 3 -14 6 -6 3 7 2 16 -1 19 -3 4 -6 -2 -5 -13z"/>
<path d="M5463 6193 c9 -2 25 -2 35 0 9 3 1 5 -18 5 -19 0 -27 -2 -17 -5z"/>
<path d="M5538 6183 c6 -2 18 -2 25 0 6 3 1 5 -13 5 -14 0 -19 -2 -12 -5z"/>
<path d="M5680 6151 c52 -16 104 -31 115 -35 19 -7 19 -7 1 4 -26 17 -165 60
-190 59 -12 0 22 -13 74 -28z"/>
<path d="M8870 6170 c-8 -5 -10 -10 -5 -10 6 0 17 5 25 10 8 5 11 10 5 10 -5
0 -17 -5 -25 -10z"/>
<path d="M9040 6170 c-8 -5 -10 -10 -5 -10 6 0 17 5 25 10 8 5 11 10 5 10 -5
0 -17 -5 -25 -10z"/>
<path d="M5905 6130 c-10 -22 -22 -40 -27 -40 -5 0 -6 -4 -3 -10 3 -5 11 -10
17 -10 6 0 9 3 5 6 -3 3 4 24 15 45 11 22 18 42 16 45 -3 2 -13 -14 -23 -36z"/>
<path d="M6200 6125 c-17 -25 -29 -45 -26 -45 3 0 19 20 36 45 17 25 29 45 26
45 -3 0 -19 -20 -36 -45z"/>
<path d="M5203 6120 c0 -25 2 -35 4 -22 2 12 2 32 0 45 -2 12 -4 2 -4 -23z"/>
<path d="M5423 6105 c0 -27 2 -38 4 -22 2 15 2 37 0 50 -2 12 -4 0 -4 -28z"/>
<path d="M8940 6134 l-25 -15 25 7 c14 3 32 10 40 15 13 7 13 8 0 8 -8 0 -26
-6 -40 -15z"/>
<path d="M5830 6100 c8 -5 20 -10 25 -10 6 0 3 5 -5 10 -8 5 -19 10 -25 10 -5
0 -3 -5 5 -10z"/>
<path d="M5641 6084 c0 -11 3 -14 6 -6 3 7 2 16 -1 19 -3 4 -6 -2 -5 -13z"/>
<path d="M8820 6090 c-8 -5 -10 -10 -5 -10 6 0 17 5 25 10 8 5 11 10 5 10 -5
0 -17 -5 -25 -10z"/>
<path d="M6140 6040 c-12 -16 -19 -30 -16 -30 2 0 14 14 26 30 12 17 19 30 16
30 -2 0 -14 -13 -26 -30z"/>
<path d="M5631 6044 c0 -11 3 -14 6 -6 3 7 2 16 -1 19 -3 4 -6 -2 -5 -13z"/>
<path d="M5213 6005 c0 -22 2 -30 4 -17 2 12 2 30 0 40 -3 9 -5 -1 -4 -23z"/>
<path d="M5970 6036 c0 -3 9 -10 20 -16 11 -6 20 -8 20 -6 0 3 -9 10 -20 16
-11 6 -20 8 -20 6z"/>
<path d="M5413 5995 c0 -22 2 -30 4 -17 2 12 2 30 0 40 -3 9 -5 -1 -4 -23z"/>
<path d="M5837 5985 c-24 -50 -20 -58 4 -12 11 22 19 41 17 43 -3 2 -12 -12
-21 -31z"/>
<path d="M6035 5995 c11 -9 26 -20 34 -25 13 -7 12 -12 -3 -36 l-17 -29 20 23
c10 12 23 22 27 22 4 0 28 -16 53 -36 l46 -36 -48 44 c-26 23 -67 53 -90 66
-23 13 -33 16 -22 7z"/>
<path d="M5601 5934 c0 -11 3 -14 6 -6 3 7 2 16 -1 19 -3 4 -6 -2 -5 -13z"/>
<path d="M5222 5890 c0 -19 2 -27 5 -17 2 9 2 25 0 35 -3 9 -5 1 -5 -18z"/>
<path d="M5403 5875 c0 -22 2 -30 4 -17 2 12 2 30 0 40 -3 9 -5 -1 -4 -23z"/>
<path d="M5767 5835 c-24 -50 -20 -58 4 -12 11 22 19 41 17 43 -3 2 -12 -12
-21 -31z"/>
<path d="M6000 5840 c-12 -16 -19 -30 -16 -30 2 0 14 14 26 30 12 17 19 30 16
30 -2 0 -14 -13 -26 -30z"/>
<path d="M5571 5824 c0 -11 3 -14 6 -6 3 7 2 16 -1 19 -3 4 -6 -2 -5 -13z"/>
<path d="M5207 5813 c18 -4 23 -12 26 -51 l3 -47 2 53 c2 51 1 52 -25 51 -23
-1 -24 -2 -6 -6z"/>
<path d="M5408 5813 c6 -2 18 -2 25 0 6 3 1 5 -13 5 -14 0 -19 -2 -12 -5z"/>
<path d="M5468 5803 c6 -2 18 -2 25 0 6 3 1 5 -13 5 -14 0 -19 -2 -12 -5z"/>
<path d="M5393 5765 c0 -22 2 -30 4 -17 2 12 2 30 0 40 -3 9 -5 -1 -4 -23z"/>
<path d="M5528 5793 c7 -3 16 -2 19 1 4 3 -2 6 -13 5 -11 0 -14 -3 -6 -6z"/>
<path d="M5561 5784 c0 -11 3 -14 6 -6 3 7 2 16 -1 19 -3 4 -6 -2 -5 -13z"/>
<path d="M5930 5740 c-12 -16 -19 -30 -16 -30 2 0 14 14 26 30 12 17 19 30 16
30 -2 0 -14 -13 -26 -30z"/>
<path d="M5702 5694 c-28 -57 -28 -72 0 -19 11 22 25 43 30 46 6 4 6 9 1 12
-5 3 -19 -14 -31 -39z"/>
<path d="M7160 5720 c-19 -11 -30 -19 -25 -19 6 0 26 8 45 19 19 11 31 19 25
19 -5 0 -26 -8 -45 -19z"/>
<path d="M6373 5689 c20 -25 37 -49 37 -53 0 -4 -10 -17 -22 -27 l-23 -20 28
17 c32 19 27 23 73 -53 27 -45 43 -59 23 -20 -23 42 -110 165 -131 183 -12 11
-5 -2 15 -27z"/>
<path d="M5243 5665 c0 -27 2 -38 4 -22 2 15 2 37 0 50 -2 12 -4 0 -4 -28z"/>
<path d="M5770 5706 c0 -3 9 -10 20 -16 11 -6 20 -8 20 -6 0 3 -9 10 -20 16
-11 6 -20 8 -20 6z"/>
<path d="M5383 5650 c0 -25 2 -35 4 -22 2 12 2 32 0 45 -2 12 -4 2 -4 -23z"/>
<path d="M5531 5674 c0 -11 3 -14 6 -6 3 7 2 16 -1 19 -3 4 -6 -2 -5 -13z"/>
<path d="M5840 5662 c20 -17 22 -22 11 -36 -7 -9 -11 -16 -8 -16 3 0 16 15 28
33 12 17 16 27 9 20 -10 -9 -19 -8 -39 4 l-26 15 25 -20z"/>
<path d="M7030 5660 c-19 -11 -30 -19 -25 -19 6 0 26 8 45 19 19 11 31 19 25
19 -5 0 -26 -8 -45 -19z"/>
<path d="M5521 5634 c0 -11 3 -14 6 -6 3 7 2 16 -1 19 -3 4 -6 -2 -5 -13z"/>
<path d="M6926 5612 c-3 -5 1 -9 9 -9 8 0 15 4 15 9 0 4 -4 8 -9 8 -6 0 -12
-4 -15 -8z"/>
<path d="M6870 5585 c-14 -8 -20 -14 -15 -14 6 0 21 6 35 14 14 8 21 14 15 14
-5 0 -21 -6 -35 -14z"/>
<path d="M5252 5550 c0 -19 2 -27 5 -17 2 9 2 25 0 35 -3 9 -5 1 -5 -18z"/>
<path d="M9287 5559 c4 -13 8 -18 11 -10 2 7 -1 18 -6 23 -8 8 -9 4 -5 -13z"/>
<path d="M5373 5535 c0 -22 2 -30 4 -17 2 12 2 30 0 40 -3 9 -5 -1 -4 -23z"/>
<path d="M5627 5535 c-24 -50 -20 -58 4 -12 11 22 19 41 17 43 -3 2 -12 -12
-21 -31z"/>
<path d="M5790 5540 c-12 -16 -19 -30 -16 -30 2 0 14 14 26 30 12 17 19 30 16
30 -2 0 -14 -13 -26 -30z"/>
<path d="M6295 5544 l-30 -26 33 22 c17 12 32 23 32 26 0 7 -4 5 -35 -22z"/>
<path d="M6960 5565 c0 -5 5 -17 10 -25 5 -8 10 -10 10 -5 0 6 -5 17 -10 25
-5 8 -10 11 -10 5z"/>
<path d="M9238 5563 c7 -3 16 -2 19 1 4 3 -2 6 -13 5 -11 0 -14 -3 -6 -6z"/>
<path d="M9178 5553 c6 -2 18 -2 25 0 6 3 1 5 -13 5 -14 0 -19 -2 -12 -5z"/>
<path d="M9118 5543 c6 -2 18 -2 25 0 6 3 1 5 -13 5 -14 0 -19 -2 -12 -5z"/>
<path d="M5491 5524 c0 -11 3 -14 6 -6 3 7 2 16 -1 19 -3 4 -6 -2 -5 -13z"/>
<path d="M6730 5520 c-19 -11 -30 -19 -25 -19 6 0 26 8 45 19 19 11 31 19 25
19 -5 0 -26 -8 -45 -19z"/>
<path d="M9068 5533 c7 -3 16 -2 19 1 4 3 -2 6 -13 5 -11 0 -14 -3 -6 -6z"/>
<path d="M9008 5523 c6 -2 18 -2 25 0 6 3 1 5 -13 5 -14 0 -19 -2 -12 -5z"/>
<path d="M9290 5520 c-9 -6 -10 -10 -3 -10 6 0 15 5 18 10 8 12 4 12 -15 0z"/>
<path d="M6213 5489 c-24 -17 -43 -32 -43 -35 0 -3 20 9 45 26 25 17 45 33 45
35 0 7 -2 6 -47 -26z"/>
<path d="M8948 5513 c6 -2 18 -2 25 0 6 3 1 5 -13 5 -14 0 -19 -2 -12 -5z"/>
<path d="M8898 5503 c6 -2 18 -2 25 0 6 3 1 5 -13 5 -14 0 -19 -2 -12 -5z"/>
<path d="M9238 5503 c7 -3 16 -2 19 1 4 3 -2 6 -13 5 -11 0 -14 -3 -6 -6z"/>
<path d="M8838 5493 c6 -2 18 -2 25 0 6 3 1 5 -13 5 -14 0 -19 -2 -12 -5z"/>
<path d="M9178 5493 c7 -3 16 -2 19 1 4 3 -2 6 -13 5 -11 0 -14 -3 -6 -6z"/>
<path d="M8763 5475 c-3 -9 -3 -19 1 -22 3 -4 6 1 6 10 0 8 10 18 23 20 l22 4
-23 2 c-12 0 -25 -6 -29 -14z"/>
<path d="M9118 5483 c7 -3 16 -2 19 1 4 3 -2 6 -13 5 -11 0 -14 -3 -6 -6z"/>
<path d="M9058 5473 c6 -2 18 -2 25 0 6 3 1 5 -13 5 -14 0 -19 -2 -12 -5z"/>
<path d="M5259 5455 c-3 -11 -2 -29 2 -40 6 -17 8 -17 8 -2 1 14 11 17 58 17
31 0 53 3 49 7 -3 4 -28 6 -55 4 -41 -2 -50 1 -53 16 -3 16 -4 16 -9 -2z"/>
<path d="M5720 5440 c-12 -16 -19 -30 -16 -30 2 0 14 14 26 30 12 17 19 30 16
30 -2 0 -14 -13 -26 -30z"/>
<path d="M6580 5451 c-19 -11 -38 -17 -42 -14 -5 2 -8 0 -8 -6 0 -13 17 -23
22 -12 1 4 21 18 43 29 22 12 36 21 30 21 -5 0 -26 -8 -45 -18z"/>
<path d="M9008 5463 c7 -3 16 -2 19 1 4 3 -2 6 -13 5 -11 0 -14 -3 -6 -6z"/>
<path d="M8948 5453 c7 -3 16 -2 19 1 4 3 -2 6 -13 5 -11 0 -14 -3 -6 -6z"/>
<path d="M8888 5443 c6 -2 18 -2 25 0 6 3 1 5 -13 5 -14 0 -19 -2 -12 -5z"/>
<path d="M8828 5433 c6 -2 18 -2 25 0 6 3 1 5 -13 5 -14 0 -19 -2 -12 -5z"/>
<path d="M5208 5423 c7 -3 16 -2 19 1 4 3 -2 6 -13 5 -11 0 -14 -3 -6 -6z"/>
<path d="M5408 5423 c7 -3 16 -2 19 1 4 3 -2 6 -13 5 -11 0 -14 -3 -6 -6z"/>
<path d="M5456 5421 c-4 -5 -2 -12 3 -15 5 -4 12 -2 15 3 4 5 2 12 -3 15 -5 4
-12 2 -15 -3z"/>
<path d="M6100 5407 c-14 -12 -21 -19 -16 -14 18 13 25 8 52 -38 14 -25 28
-45 30 -45 6 0 -14 38 -37 71 -14 20 -15 29 -7 37 21 21 4 13 -22 -11z"/>
<path d="M8778 5423 c7 -3 16 -2 19 1 4 3 -2 6 -13 5 -11 0 -14 -3 -6 -6z"/>
<path d="M5560 5401 c-8 -9 -16 -28 -18 -41 -2 -23 -2 -23 11 -6 12 16 17 17
38 7 l24 -12 -23 18 c-15 12 -21 25 -16 36 8 21 3 20 -16 -2z"/>
<path d="M6430 5380 c-19 -11 -30 -19 -25 -19 6 0 26 8 45 19 19 11 31 19 25
19 -5 0 -26 -8 -45 -19z"/>
<path d="M6550 5395 c0 -5 5 -17 10 -25 5 -8 10 -10 10 -5 0 6 -5 17 -10 25
-5 8 -10 11 -10 5z"/>
<path d="M5451 5374 c0 -11 3 -14 6 -6 3 7 2 16 -1 19 -3 4 -6 -2 -5 -13z"/>
<path d="M5273 5320 c0 -25 2 -35 4 -22 2 12 2 32 0 45 -2 12 -4 2 -4 -23z"/>
<path d="M5995 5334 l-30 -26 33 22 c17 12 32 23 32 26 0 7 -4 5 -35 -22z"/>
<path d="M6570 5345 c0 -5 5 -17 10 -25 5 -8 10 -10 10 -5 0 6 -5 17 -10 25
-5 8 -10 11 -10 5z"/>
<path d="M6290 5315 c-25 -13 -40 -24 -35 -24 6 0 30 11 55 24 25 13 41 24 35
24 -5 0 -30 -11 -55 -24z"/>
<path d="M5590 5255 c-17 -25 -29 -45 -26 -45 3 0 19 20 36 45 17 25 29 45 26
45 -3 0 -19 -20 -36 -45z"/>
<path d="M5895 5264 l-30 -26 33 22 c17 12 32 23 32 26 0 7 -4 5 -35 -22z"/>
<path d="M5421 5264 c0 -11 3 -14 6 -6 3 7 2 16 -1 19 -3 4 -6 -2 -5 -13z"/>
<path d="M6180 5274 c0 -6 -18 -19 -40 -29 -22 -10 -38 -20 -36 -22 2 -3 22 5
44 16 l39 20 12 -22 c11 -21 11 -21 5 3 -7 27 -24 51 -24 34z"/>
<path d="M5487 5235 c-24 -50 -20 -58 4 -12 11 22 19 41 17 43 -3 2 -12 -12
-21 -31z"/>
<path d="M8182 5235 c0 -16 2 -22 5 -12 2 9 2 23 0 30 -3 6 -5 -1 -5 -18z"/>
<path d="M5283 5210 c0 -25 2 -35 4 -22 2 12 2 32 0 45 -2 12 -4 2 -4 -23z"/>
<path d="M5411 5224 c0 -11 3 -14 6 -6 3 7 2 16 -1 19 -3 4 -6 -2 -5 -13z"/>
<path d="M5520 5155 c-17 -25 -29 -45 -26 -45 3 0 19 20 36 45 17 25 29 45 26
45 -3 0 -19 -20 -36 -45z"/>
<path d="M5990 5175 c-25 -13 -40 -24 -35 -24 6 0 30 11 55 24 25 13 41 24 35
24 -5 0 -30 -11 -55 -24z"/>
<path d="M6498 5173 c7 -3 16 -2 19 1 4 3 -2 6 -13 5 -11 0 -14 -3 -6 -6z"/>
<path d="M8192 5150 c0 -14 2 -19 5 -12 2 6 2 18 0 25 -3 6 -5 1 -5 -13z"/>
<path d="M6388 5143 c7 -3 16 -2 19 1 4 3 -2 6 -13 5 -11 0 -14 -3 -6 -6z"/>
<path d="M5293 5095 c0 -22 2 -30 4 -17 2 12 2 30 0 40 -3 9 -5 -1 -4 -23z"/>
<path d="M5381 5114 c0 -11 3 -14 6 -6 3 7 2 16 -1 19 -3 4 -6 -2 -5 -13z"/>
<path d="M6240 5115 c0 -8 4 -15 10 -15 5 0 7 7 4 15 -4 8 -8 15 -10 15 -2 0
-4 -7 -4 -15z"/>
<path d="M5417 5085 c-24 -50 -20 -58 4 -12 11 22 19 41 17 43 -3 2 -12 -12
-21 -31z"/>
<path d="M6278 5113 c7 -3 16 -2 19 1 4 3 -2 6 -13 5 -11 0 -14 -3 -6 -6z"/>
<path d="M8143 5103 c9 -2 25 -2 35 0 9 3 1 5 -18 5 -19 0 -27 -2 -17 -5z"/>
<path d="M5450 5055 c-17 -25 -29 -45 -26 -45 3 0 19 20 36 45 17 25 29 45 26
45 -3 0 -19 -20 -36 -45z"/>
<path d="M8028 5093 c12 -2 30 -2 40 0 9 3 -1 5 -23 4 -22 0 -30 -2 -17 -4z"/>
<path d="M6251 5074 c0 -11 3 -14 6 -6 3 7 2 16 -1 19 -3 4 -6 -2 -5 -13z"/>
<path d="M7908 5083 c12 -2 30 -2 40 0 9 3 -1 5 -23 4 -22 0 -30 -2 -17 -4z"/>
<path d="M6262 5030 c0 -14 2 -19 5 -12 2 6 2 18 0 25 -3 6 -5 1 -5 -13z"/>
<path d="M5351 5004 c0 -11 3 -14 6 -6 3 7 2 16 -1 19 -3 4 -6 -2 -5 -13z"/>
<path d="M5865 5011 c-3 -5 -1 -12 5 -16 5 -3 10 1 10 9 0 18 -6 21 -15 7z"/>
<path d="M5403 4988 c-15 -20 -25 -38 -20 -38 3 0 12 11 21 25 17 26 16 35 -1
13z"/>
<path d="M5828 4993 c7 -3 16 -2 19 1 4 3 -2 6 -13 5 -11 0 -14 -3 -6 -6z"/>
<path d="M5130 4986 c0 -2 14 -14 30 -26 17 -12 30 -19 30 -16 0 2 -13 14 -30
26 -16 12 -30 19 -30 16z"/>
<path d="M5788 4983 c7 -3 16 -2 19 1 4 3 -2 6 -13 5 -11 0 -14 -3 -6 -6z"/>
<path d="M5718 4963 c7 -3 16 -2 19 1 4 3 -2 6 -13 5 -11 0 -14 -3 -6 -6z"/>
<path d="M5881 4954 c0 -11 3 -14 6 -6 3 7 2 16 -1 19 -3 4 -6 -2 -5 -13z"/>
<path d="M5678 4953 c7 -3 16 -2 19 1 4 3 -2 6 -13 5 -11 0 -14 -3 -6 -6z"/>
<path d="M6198 4933 c12 -2 32 -2 45 0 12 2 2 4 -23 4 -25 0 -35 -2 -22 -4z"/>
<path d="M5568 4923 c7 -3 16 -2 19 1 4 3 -2 6 -13 5 -11 0 -14 -3 -6 -6z"/>
<path d="M6088 4923 c12 -2 30 -2 40 0 9 3 -1 5 -23 4 -22 0 -30 -2 -17 -4z"/>
<path d="M5088 4913 c7 -3 16 -2 19 1 4 3 -2 6 -13 5 -11 0 -14 -3 -6 -6z"/>
<path d="M5528 4913 c7 -3 16 -2 19 1 4 3 -2 6 -13 5 -11 0 -14 -3 -6 -6z"/>
<path d="M5865 4909 l-30 -7 28 -1 c25 -1 27 -4 27 -45 0 -26 -5 -46 -12 -48
-8 -3 -7 -6 3 -10 7 -3 23 -2 34 3 18 7 18 8 2 8 -16 1 -18 9 -16 51 2 27 1
51 -2 53 -2 2 -17 0 -34 -4z"/>
<path d="M5973 4913 c9 -2 25 -2 35 0 9 3 1 5 -18 5 -19 0 -27 -2 -17 -5z"/>
<path d="M5128 4903 c7 -3 16 -2 19 1 4 3 -2 6 -13 5 -11 0 -14 -3 -6 -6z"/>
<path d="M5488 4903 c7 -3 16 -2 19 1 4 3 -2 6 -13 5 -11 0 -14 -3 -6 -6z"/>
<path d="M5738 4893 c12 -2 32 -2 45 0 12 2 2 4 -23 4 -25 0 -35 -2 -22 -4z"/>
<path d="M5633 4883 c9 -2 25 -2 35 0 9 3 1 5 -18 5 -19 0 -27 -2 -17 -5z"/>
<path d="M5083 4873 c9 -2 25 -2 35 0 9 3 1 5 -18 5 -19 0 -27 -2 -17 -5z"/>
<path d="M5513 4873 c9 -2 25 -2 35 0 9 3 1 5 -18 5 -19 0 -27 -2 -17 -5z"/>
<path d="M9350 4846 c0 -23 -4 -25 -52 -29 l-53 -3 58 -2 57 -2 0 30 c0 17 -2
30 -5 30 -3 0 -5 -11 -5 -24z"/>
<path d="M5058 4833 c12 -2 30 -2 40 0 9 3 -1 5 -23 4 -22 0 -30 -2 -17 -4z"/>
<path d="M5543 4833 c9 -2 25 -2 35 0 9 3 1 5 -18 5 -19 0 -27 -2 -17 -5z"/>
<path d="M5648 4823 c12 -2 32 -2 45 0 12 2 2 4 -23 4 -25 0 -35 -2 -22 -4z"/>
<path d="M5158 4813 c7 -3 16 -2 19 1 4 3 -2 6 -13 5 -11 0 -14 -3 -6 -6z"/>
<path d="M5768 4813 c12 -2 30 -2 40 0 9 3 -1 5 -23 4 -22 0 -30 -2 -17 -4z"/>
<path d="M8843 4813 c15 -2 39 -2 55 0 15 2 2 4 -28 4 -30 0 -43 -2 -27 -4z"/>
<path d="M8958 4813 c6 -2 18 -2 25 0 6 3 1 5 -13 5 -14 0 -19 -2 -12 -5z"/>
<path d="M9093 4813 c9 -2 23 -2 30 0 6 3 -1 5 -18 5 -16 0 -22 -2 -12 -5z"/>
<path d="M5118 4803 c7 -3 16 -2 19 1 4 3 -2 6 -13 5 -11 0 -14 -3 -6 -6z"/>
<path d="M5078 4793 c7 -3 16 -2 19 1 4 3 -2 6 -13 5 -11 0 -14 -3 -6 -6z"/>
<path d="M5998 4793 c12 -2 30 -2 40 0 9 3 -1 5 -23 4 -22 0 -30 -2 -17 -4z"/>
<path d="M5490 4770 c19 -11 40 -19 45 -19 6 0 -6 8 -25 19 -19 11 -39 19 -45
19 -5 0 6 -8 25 -19z"/>
<path d="M5008 4773 c7 -3 16 -2 19 1 4 3 -2 6 -13 5 -11 0 -14 -3 -6 -6z"/>
<path d="M5100 4760 c-19 -11 -30 -19 -25 -19 6 0 26 8 45 19 19 11 31 19 25
19 -5 0 -26 -8 -45 -19z"/>
<path d="M5430 4776 c0 -2 14 -14 30 -26 17 -12 30 -19 30 -16 0 2 -13 14 -30
26 -16 12 -30 19 -30 16z"/>
<path d="M5881 4754 c0 -11 3 -14 6 -6 3 7 2 16 -1 19 -3 4 -6 -2 -5 -13z"/>
<path d="M5095 4704 l-30 -26 33 22 c17 12 32 23 32 26 0 7 -4 5 -35 -22z"/>
<path d="M5420 4700 c12 -16 24 -30 26 -30 3 0 -4 14 -16 30 -12 17 -24 30
-26 30 -3 0 4 -13 16 -30z"/>
<path d="M5271 4704 c0 -11 3 -14 6 -6 3 7 2 16 -1 19 -3 4 -6 -2 -5 -13z"/>
<path d="M5640 4700 c19 -11 40 -19 45 -19 6 0 -6 8 -25 19 -19 11 -39 19 -45
19 -5 0 6 -8 25 -19z"/>
<path d="M5530 4706 c0 -2 14 -14 30 -26 17 -12 30 -19 30 -16 0 2 -13 14 -30
26 -16 12 -30 19 -30 16z"/>
<path d="M5170 4655 c-17 -25 -29 -45 -26 -45 3 0 19 20 36 45 17 25 29 45 26
45 -3 0 -19 -20 -36 -45z"/>
<path d="M5856 4665 c-9 -26 -7 -32 5 -12 6 10 9 21 6 23 -2 3 -7 -2 -11 -11z"/>
<path d="M7368 4673 c12 -2 32 -2 45 0 12 2 2 4 -23 4 -25 0 -35 -2 -22 -4z"/>
<path d="M5207 4635 c-24 -50 -20 -58 4 -12 11 22 19 41 17 43 -3 2 -12 -12
-21 -31z"/>
<path d="M5333 4635 c0 -22 2 -30 4 -17 2 12 2 30 0 40 -3 9 -5 -1 -4 -23z"/>
<path d="M4995 4634 l-30 -26 33 22 c17 12 32 23 32 26 0 7 -4 5 -35 -22z"/>
<path d="M5770 4640 c19 -11 40 -19 45 -19 6 0 -6 8 -25 19 -19 11 -39 19 -45
19 -5 0 6 -8 25 -19z"/>
<path d="M5292 4620 c0 -19 2 -27 5 -17 2 9 2 25 0 35 -3 9 -5 1 -5 -18z"/>
<path d="M5371 4634 c0 -11 3 -14 6 -6 3 7 2 16 -1 19 -3 4 -6 -2 -5 -13z"/>
<path d="M5411 4645 c0 -5 11 -30 24 -55 13 -25 24 -40 24 -35 0 6 -11 30 -24
55 -13 25 -24 41 -24 35z"/>
<path d="M5630 4636 c0 -2 14 -14 30 -26 17 -12 30 -19 30 -16 0 2 -13 14 -30
26 -16 12 -30 19 -30 16z"/>
<path d="M5490 4600 c12 -16 24 -30 26 -30 3 0 -4 14 -16 30 -12 17 -24 30
-26 30 -3 0 4 -13 16 -30z"/>
<path d="M5830 4606 c-6 -16 -13 -34 -16 -40 -3 -6 2 -2 10 8 9 11 20 22 25
26 6 3 6 11 1 20 -7 11 -11 8 -20 -14z"/>
<path d="M7422 4610 c0 -14 2 -19 5 -12 2 6 2 18 0 25 -3 6 -5 1 -5 -13z"/>
<path d="M5241 4594 c0 -11 3 -14 6 -6 3 7 2 16 -1 19 -3 4 -6 -2 -5 -13z"/>
<path d="M5381 4594 c0 -11 3 -14 6 -6 3 7 2 16 -1 19 -3 4 -6 -2 -5 -13z"/>
<path d="M5110 4570 c-12 -16 -19 -30 -16 -30 2 0 14 14 26 30 12 17 19 30 16
30 -2 0 -14 -13 -26 -30z"/>
<path d="M5231 4554 c0 -11 3 -14 6 -6 3 7 2 16 -1 19 -3 4 -6 -2 -5 -13z"/>
<path d="M5754 4547 c26 -23 28 -28 15 -44 -13 -17 -13 -17 7 -1 16 14 23 15
34 5 12 -10 12 -9 1 5 -7 9 -9 23 -5 30 5 10 4 10 -6 1 -10 -10 -20 -8 -44 8
l-31 21 29 -25z"/>
<path d="M7412 4545 c0 -16 2 -22 5 -12 2 9 2 23 0 30 -3 6 -5 -1 -5 -18z"/>
<path d="M5343 4520 c0 -25 2 -35 4 -22 2 12 2 32 0 45 -2 12 -4 2 -4 -23z"/>
<path d="M5142 4495 c-30 -62 -27 -71 4 -12 14 27 24 51 22 53 -3 2 -14 -17
-26 -41z"/>
<path d="M5283 4505 c0 -22 2 -30 4 -17 2 12 2 30 0 40 -3 9 -5 -1 -4 -23z"/>
<path d="M5560 4500 c12 -16 24 -30 26 -30 3 0 -4 14 -16 30 -12 17 -24 30
-26 30 -3 0 4 -13 16 -30z"/>
<path d="M5040 4470 c-12 -16 -19 -30 -16 -30 2 0 14 14 26 30 12 17 19 30 16
30 -2 0 -14 -13 -26 -30z"/>
<path d="M5411 4484 c0 -11 3 -14 6 -6 3 7 2 16 -1 19 -3 4 -6 -2 -5 -13z"/>
<path d="M7401 4484 c0 -11 3 -14 6 -6 3 7 2 16 -1 19 -3 4 -6 -2 -5 -13z"/>
<path d="M5491 4475 c0 -5 8 -26 19 -45 11 -19 19 -30 19 -25 0 6 -8 26 -19
45 -11 19 -19 31 -19 25z"/>
<path d="M5201 4444 c0 -11 3 -14 6 -6 3 7 2 16 -1 19 -3 4 -6 -2 -5 -13z"/>
<path d="M5353 4410 c0 -25 2 -35 4 -22 2 12 2 32 0 45 -2 12 -4 2 -4 -23z"/>
<path d="M7391 4434 c0 -11 3 -14 6 -6 3 7 2 16 -1 19 -3 4 -6 -2 -5 -13z"/>
<path d="M5273 4390 c0 -25 2 -35 4 -22 2 12 2 32 0 45 -2 12 -4 2 -4 -23z"/>
<path d="M5191 4404 c0 -11 3 -14 6 -6 3 7 2 16 -1 19 -3 4 -6 -2 -5 -13z"/>
<path d="M7028 4393 c7 -3 16 -2 19 1 4 3 -2 6 -13 5 -11 0 -14 -3 -6 -6z"/>
<path d="M7381 4384 c0 -11 3 -14 6 -6 3 7 2 16 -1 19 -3 4 -6 -2 -5 -13z"/>
<path d="M5072 4346 c-27 -53 -28 -61 -4 -38 11 9 17 20 15 24 -2 4 1 17 7 29
7 11 10 23 8 25 -3 2 -14 -16 -26 -40z"/>
<path d="M5441 4374 c0 -11 3 -14 6 -6 3 7 2 16 -1 19 -3 4 -6 -2 -5 -13z"/>
<path d="M7068 4383 c7 -3 16 -2 19 1 4 3 -2 6 -13 5 -11 0 -14 -3 -6 -6z"/>
<path d="M7178 4353 c7 -3 16 -2 19 1 4 3 -2 6 -13 5 -11 0 -14 -3 -6 -6z"/>
<path d="M7371 4344 c0 -11 3 -14 6 -6 3 7 2 16 -1 19 -3 4 -6 -2 -5 -13z"/>
<path d="M5451 4334 c0 -11 3 -14 6 -6 3 7 2 16 -1 19 -3 4 -6 -2 -5 -13z"/>
<path d="M5550 4343 c1 -11 49 -100 50 -92 0 10 -40 99 -45 99 -3 0 -5 -3 -5
-7z"/>
<path d="M7218 4343 c7 -3 16 -2 19 1 4 3 -2 6 -13 5 -11 0 -14 -3 -6 -6z"/>
<path d="M5362 4295 c-1 -22 2 -35 6 -28 4 6 21 13 37 16 l30 4 -32 2 c-24 1
-33 6 -36 24 -2 12 -5 5 -5 -18z"/>
<path d="M5700 4300 c12 -16 24 -30 26 -30 3 0 -4 14 -16 30 -12 17 -24 30
-26 30 -3 0 4 -13 16 -30z"/>
<path d="M7328 4313 c7 -3 16 -2 19 1 4 3 -2 6 -13 5 -11 0 -14 -3 -6 -6z"/>
<path d="M7360 4310 c0 -6 7 -10 15 -10 8 0 15 2 15 4 0 2 -7 6 -15 10 -8 3
-15 1 -15 -4z"/>
<path d="M5160 4295 c0 -9 6 -12 15 -9 8 4 15 7 15 9 0 2 -7 5 -15 9 -9 3 -15
0 -15 -9z"/>
<path d="M5262 4280 c0 -19 2 -27 5 -17 2 9 2 25 0 35 -3 9 -5 1 -5 -18z"/>
<path d="M5452 4301 c-11 -7 -11 -9 2 -14 10 -4 16 -1 16 8 0 17 -1 17 -18 6z"/>
<path d="M4900 4270 c-12 -16 -19 -30 -16 -30 2 0 14 14 26 30 12 17 19 30 16
30 -2 0 -14 -13 -26 -30z"/>
<path d="M5213 4283 c9 -2 23 -2 30 0 6 3 -1 5 -18 5 -16 0 -22 -2 -12 -5z"/>
<path d="M7478 4273 c7 -3 16 -2 19 1 4 3 -2 6 -13 5 -11 0 -14 -3 -6 -6z"/>
<path d="M5151 4254 c0 -11 3 -14 6 -6 3 7 2 16 -1 19 -3 4 -6 -2 -5 -13z"/>
<path d="M7518 4263 c7 -3 16 -2 19 1 4 3 -2 6 -13 5 -11 0 -14 -3 -6 -6z"/>
<path d="M8763 4255 c-3 -9 -3 -18 -1 -21 3 -3 8 4 11 16 6 23 -1 27 -10 5z"/>
<path d="M8808 4253 c6 -2 18 -2 25 0 6 3 1 5 -13 5 -14 0 -19 -2 -12 -5z"/>
<path d="M7588 4243 c7 -3 16 -2 19 1 4 3 -2 6 -13 5 -11 0 -14 -3 -6 -6z"/>
<path d="M8863 4243 c9 -2 23 -2 30 0 6 3 -1 5 -18 5 -16 0 -22 -2 -12 -5z"/>
<path d="M5002 4195 c-30 -62 -27 -71 4 -12 14 27 24 51 22 53 -3 2 -14 -17
-26 -41z"/>
<path d="M5481 4224 c0 -11 3 -14 6 -6 3 7 2 16 -1 19 -3 4 -6 -2 -5 -13z"/>
<path d="M7628 4233 c7 -3 16 -2 19 1 4 3 -2 6 -13 5 -11 0 -14 -3 -6 -6z"/>
<path d="M8918 4233 c6 -2 18 -2 25 0 6 3 1 5 -13 5 -14 0 -19 -2 -12 -5z"/>
<path d="M8978 4223 c6 -2 18 -2 25 0 6 3 1 5 -13 5 -14 0 -19 -2 -12 -5z"/>
<path d="M9038 4213 c6 -2 18 -2 25 0 6 3 1 5 -13 5 -14 0 -19 -2 -12 -5z"/>
<path d="M5373 4175 c0 -22 2 -30 4 -17 2 12 2 30 0 40 -3 9 -5 -1 -4 -23z"/>
<path d="M7738 4203 c7 -3 16 -2 19 1 4 3 -2 6 -13 5 -11 0 -14 -3 -6 -6z"/>
<path d="M8768 4203 c7 -3 16 -2 19 1 4 3 -2 6 -13 5 -11 0 -14 -3 -6 -6z"/>
<path d="M9088 4203 c6 -2 18 -2 25 0 6 3 1 5 -13 5 -14 0 -19 -2 -12 -5z"/>
<path d="M4830 4170 c-12 -16 -19 -30 -16 -30 2 0 14 14 26 30 12 17 19 30 16
30 -2 0 -14 -13 -26 -30z"/>
<path d="M5131 4184 c0 -11 3 -14 6 -6 3 7 2 16 -1 19 -3 4 -6 -2 -5 -13z"/>
<path d="M5491 4184 c0 -11 3 -14 6 -6 3 7 2 16 -1 19 -3 4 -6 -2 -5 -13z"/>
<path d="M7778 4193 c7 -3 16 -2 19 1 4 3 -2 6 -13 5 -11 0 -14 -3 -6 -6z"/>
<path d="M8818 4193 c7 -3 16 -2 19 1 4 3 -2 6 -13 5 -11 0 -14 -3 -6 -6z"/>
<path d="M9148 4193 c7 -3 16 -2 19 1 4 3 -2 6 -13 5 -11 0 -14 -3 -6 -6z"/>
<path d="M5252 4160 c0 -19 2 -27 5 -17 2 9 2 25 0 35 -3 9 -5 1 -5 -18z"/>
<path d="M7818 4183 c7 -3 16 -2 19 1 4 3 -2 6 -13 5 -11 0 -14 -3 -6 -6z"/>
<path d="M8868 4183 c6 -2 18 -2 25 0 6 3 1 5 -13 5 -14 0 -19 -2 -12 -5z"/>
<path d="M9208 4183 c7 -3 16 -2 19 1 4 3 -2 6 -13 5 -11 0 -14 -3 -6 -6z"/>
<path d="M8928 4173 c6 -2 18 -2 25 0 6 3 1 5 -13 5 -14 0 -19 -2 -12 -5z"/>
<path d="M9267 4174 c12 -3 24 -14 26 -25 4 -15 4 -14 3 3 -1 17 -8 23 -26 25
-21 1 -21 0 -3 -3z"/>
<path d="M7888 4163 c7 -3 16 -2 19 1 4 3 -2 6 -13 5 -11 0 -14 -3 -6 -6z"/>
<path d="M8988 4163 c7 -3 16 -2 19 1 4 3 -2 6 -13 5 -11 0 -14 -3 -6 -6z"/>
<path d="M5121 4144 c0 -11 3 -14 6 -6 3 7 2 16 -1 19 -3 4 -6 -2 -5 -13z"/>
<path d="M7928 4153 c7 -3 16 -2 19 1 4 3 -2 6 -13 5 -11 0 -14 -3 -6 -6z"/>
<path d="M9038 4153 c6 -2 18 -2 25 0 6 3 1 5 -13 5 -14 0 -19 -2 -12 -5z"/>
<path d="M9098 4143 c6 -2 18 -2 25 0 6 3 1 5 -13 5 -14 0 -19 -2 -12 -5z"/>
<path d="M9153 4133 c9 -2 23 -2 30 0 6 3 -1 5 -18 5 -16 0 -22 -2 -12 -5z"/>
<path d="M9208 4123 c6 -2 18 -2 25 0 6 3 1 5 -13 5 -14 0 -19 -2 -12 -5z"/>
<path d="M9268 4113 c7 -3 16 -2 19 1 4 3 -2 6 -13 5 -11 0 -14 -3 -6 -6z"/>
<path d="M4729 4088 c14 -16 20 -32 16 -40 -6 -10 -5 -10 5 -1 11 10 21 8 49
-8 22 -12 28 -14 16 -4 -11 9 -27 20 -35 25 -12 7 -12 10 0 26 14 16 13 16 -7
4 -19 -12 -25 -12 -45 5 l-23 20 24 -27z"/>
<path d="M5383 4065 c0 -27 2 -38 4 -22 2 15 2 37 0 50 -2 12 -4 0 -4 -28z"/>
<path d="M4930 4040 c-26 -56 -23 -54 -53 -39 -19 9 -18 7 3 -10 29 -24 52
-27 44 -7 -3 8 4 33 16 56 12 23 20 44 17 46 -2 2 -14 -19 -27 -46z"/>
<path d="M5243 4050 c0 -25 2 -35 4 -22 2 12 2 32 0 45 -2 12 -4 2 -4 -23z"/>
<path d="M5521 4074 c0 -11 3 -14 6 -6 3 7 2 16 -1 19 -3 4 -6 -2 -5 -13z"/>
<path d="M5091 4034 c0 -11 3 -14 6 -6 3 7 2 16 -1 19 -3 4 -6 -2 -5 -13z"/>
<path d="M5081 3994 c0 -11 3 -14 6 -6 3 7 2 16 -1 19 -3 4 -6 -2 -5 -13z"/>
<path d="M4690 3970 c-12 -16 -19 -30 -16 -30 2 0 14 14 26 30 12 17 19 30 16
30 -2 0 -14 -13 -26 -30z"/>
<path d="M5393 3955 c0 -22 2 -30 4 -17 2 12 2 30 0 40 -3 9 -5 -1 -4 -23z"/>
<path d="M5551 3964 c0 -11 3 -14 6 -6 3 7 2 16 -1 19 -3 4 -6 -2 -5 -13z"/>
<path d="M4950 3960 c8 -5 20 -10 25 -10 6 0 3 5 -5 10 -8 5 -19 10 -25 10 -5
0 -3 -5 5 -10z"/>
<path d="M5233 3935 c0 -22 2 -30 4 -17 2 12 2 30 0 40 -3 9 -5 -1 -4 -23z"/>
<path d="M4862 3895 c-30 -62 -27 -71 4 -12 14 27 24 51 22 53 -3 2 -14 -17
-26 -41z"/>
<path d="M5055 3931 c-3 -5 -1 -12 5 -16 5 -3 10 1 10 9 0 18 -6 21 -15 7z"/>
<path d="M5556 3931 c-4 -5 -2 -12 3 -15 5 -4 12 -2 15 3 4 5 2 12 -3 15 -5 4
-12 2 -15 -3z"/>
<path d="M4630 3885 c-17 -25 -29 -45 -26 -45 3 0 19 20 36 45 17 25 29 45 26
45 -3 0 -19 -20 -36 -45z"/>
<path d="M5518 3913 c7 -3 16 -2 19 1 4 3 -2 6 -13 5 -11 0 -14 -3 -6 -6z"/>
<path d="M5468 3903 c7 -3 16 -2 19 1 4 3 -2 6 -13 5 -11 0 -14 -3 -6 -6z"/>
<path d="M5051 3884 c0 -11 3 -14 6 -6 3 7 2 16 -1 19 -3 4 -6 -2 -5 -13z"/>
<path d="M5403 3835 c0 -22 2 -30 4 -17 2 12 2 30 0 40 -3 9 -5 -1 -4 -23z"/>
<path d="M5222 3820 c0 -19 2 -27 5 -17 2 9 2 25 0 35 -3 9 -5 1 -5 -18z"/>
<path d="M4550 3770 c-12 -16 -18 -30 -13 -30 4 0 16 14 25 30 22 39 15 39
-12 0z"/>
<path d="M4792 3745 c-30 -62 -27 -71 4 -12 14 27 24 51 22 53 -3 2 -14 -17
-26 -41z"/>
<path d="M5021 3774 c0 -11 3 -14 6 -6 3 7 2 16 -1 19 -3 4 -6 -2 -5 -13z"/>
<path d="M5011 3734 c0 -11 3 -14 6 -6 3 7 2 16 -1 19 -3 4 -6 -2 -5 -13z"/>
<path d="M5413 3715 c0 -22 2 -30 4 -17 2 12 2 30 0 40 -3 9 -5 -1 -4 -23z"/>
<path d="M4575 3725 c11 -9 29 -21 40 -26 l20 -10 -20 16 c-11 9 -29 21 -40
26 l-20 10 20 -16z"/>
<path d="M5213 3705 c0 -22 2 -30 4 -17 2 12 2 30 0 40 -3 9 -5 -1 -4 -23z"/>
<path d="M4490 3685 c-17 -25 -29 -45 -26 -45 3 0 19 20 36 45 17 25 29 45 26
45 -3 0 -19 -20 -36 -45z"/>
<path d="M4640 3685 c0 -2 23 -16 50 -30 l50 -25 -20 -40 c-11 -21 -20 -43
-20 -47 1 -4 12 14 26 40 14 27 24 50 22 52 -10 9 -108 55 -108 50z"/>
<path d="M5423 3610 c0 -25 2 -35 4 -22 2 12 2 32 0 45 -2 12 -4 2 -4 -23z"/>
<path d="M4981 3624 c0 -11 3 -14 6 -6 3 7 2 16 -1 19 -3 4 -6 -2 -5 -13z"/>
<path d="M4420 3585 c-17 -25 -29 -45 -26 -45 3 0 19 20 36 45 17 25 29 45 26
45 -3 0 -19 -20 -36 -45z"/>
<path d="M5203 3590 c0 -25 2 -35 4 -22 2 12 2 32 0 45 -2 12 -4 2 -4 -23z"/>
<path d="M4971 3584 c0 -11 3 -14 6 -6 3 7 2 16 -1 19 -3 4 -6 -2 -5 -13z"/>
<path d="M4350 3485 c-17 -25 -29 -45 -26 -45 3 0 19 20 36 45 17 25 29 45 26
45 -3 0 -19 -20 -36 -45z"/>
<path d="M5431 3490 c2 -29 3 -30 6 -8 3 22 10 27 36 30 l32 3 -37 6 c-38 5
-38 5 -37 -31z"/>
<path d="M5192 3480 c0 -19 2 -27 5 -17 2 9 2 25 0 35 -3 9 -5 1 -5 -18z"/>
<path d="M9085 3498 c11 -6 23 -16 27 -22 5 -8 8 -7 8 1 0 7 -9 17 -19 23 -27
14 -41 12 -16 -2z"/>
<path d="M4657 3455 c-24 -50 -20 -58 4 -12 11 22 19 41 17 43 -3 2 -12 -12
-21 -31z"/>
<path d="M4941 3474 c0 -11 3 -14 6 -6 3 7 2 16 -1 19 -3 4 -6 -2 -5 -13z"/>
<path d="M9020 3460 c8 -5 20 -10 25 -10 6 0 3 5 -5 10 -8 5 -19 10 -25 10 -5
0 -3 -5 5 -10z"/>
<path d="M9096 3443 c-6 -14 -5 -15 5 -6 7 7 10 15 7 18 -3 3 -9 -2 -12 -12z"/>
<path d="M4931 3434 c0 -11 3 -14 6 -6 3 7 2 16 -1 19 -3 4 -6 -2 -5 -13z"/>
<path d="M4299 3413 c-13 -16 -12 -17 4 -4 16 13 21 21 13 21 -2 0 -10 -8 -17
-17z"/>
<path d="M5443 3375 c0 -22 2 -30 4 -17 2 12 2 30 0 40 -3 9 -5 -1 -4 -23z"/>
<path d="M5182 3360 c0 -19 2 -27 5 -17 2 9 2 25 0 35 -3 9 -5 1 -5 -18z"/>
<path d="M4911 3364 c0 -11 3 -14 6 -6 3 7 2 16 -1 19 -3 4 -6 -2 -5 -13z"/>
<path d="M4901 3324 c0 -11 3 -14 6 -6 3 7 2 16 -1 19 -3 4 -6 -2 -5 -13z"/>
<path d="M3083 3299 c-24 -17 -43 -32 -43 -35 0 -3 20 9 45 26 25 17 45 33 45
35 0 7 -2 6 -47 -26z"/>
<path d="M4582 3295 c-15 -32 -15 -35 0 -35 6 0 8 3 5 6 -3 4 -2 15 4 26 6 11
9 22 6 24 -2 2 -9 -7 -15 -21z"/>
<path d="M4216 3293 c-6 -14 -5 -15 5 -6 7 7 10 15 7 18 -3 3 -9 -2 -12 -12z"/>
<path d="M4891 3284 c0 -11 3 -14 6 -6 3 7 2 16 -1 19 -3 4 -6 -2 -5 -13z"/>
<path d="M5453 3260 c0 -25 2 -35 4 -22 2 12 2 32 0 45 -2 12 -4 2 -4 -23z"/>
<path d="M5173 3250 c0 -25 2 -35 4 -22 2 12 2 32 0 45 -2 12 -4 2 -4 -23z"/>
<path d="M6052 3269 c3 -8 -4 -20 -16 -27 -20 -13 -20 -13 3 -6 15 4 27 1 32
-7 6 -10 8 -8 7 7 -1 11 -8 27 -16 34 -13 11 -14 11 -10 -1z"/>
<path d="M5741 3254 c0 -11 3 -14 6 -6 3 7 2 16 -1 19 -3 4 -6 -2 -5 -13z"/>
<path d="M2982 3229 l-42 -30 20 -30 c12 -16 24 -29 26 -29 3 0 -4 13 -15 29
l-21 29 40 26 c22 14 40 28 40 31 0 7 -2 7 -48 -26z"/>
<path d="M6450 3230 c12 -16 24 -30 26 -30 3 0 -4 14 -16 30 -12 17 -24 30
-26 30 -3 0 4 -13 16 -30z"/>
<path d="M4630 3240 c8 -5 20 -10 25 -10 6 0 3 5 -5 10 -8 5 -19 10 -25 10 -5
0 -3 -5 5 -10z"/>
<path d="M4871 3214 c0 -11 3 -14 6 -6 3 7 2 16 -1 19 -3 4 -6 -2 -5 -13z"/>
<path d="M4730 3202 c8 -5 26 -13 40 -16 17 -5 20 -4 10 2 -8 5 -26 13 -40 16
-17 5 -20 4 -10 -2z"/>
<path d="M4125 3164 c-9 -15 -12 -23 -6 -20 11 7 35 46 28 46 -3 0 -12 -12
-22 -26z"/>
<path d="M4517 3155 c-24 -50 -20 -58 4 -12 11 22 19 41 17 43 -3 2 -12 -12
-21 -31z"/>
<path d="M4855 3176 c-6 -6 -8 -22 -5 -36 6 -24 7 -23 13 9 8 39 6 44 -8 27z"/>
<path d="M5463 3150 c0 -25 2 -35 4 -22 2 12 2 32 0 45 -2 12 -4 2 -4 -23z"/>
<path d="M5770 3143 c0 -11 3 -14 8 -7 4 6 14 14 22 17 10 4 8 6 -7 6 -16 1
-23 -5 -23 -16z"/>
<path d="M6509 3148 c7 -10 11 -25 7 -33 -3 -9 -2 -13 4 -10 15 10 12 31 -7
46 -16 13 -17 12 -4 -3z"/>
<path d="M6111 3145 c0 -5 11 -30 24 -55 13 -25 24 -40 24 -35 0 6 -11 30 -24
55 -13 25 -24 41 -24 35z"/>
<path d="M5162 3115 c0 -16 2 -22 5 -12 2 9 2 23 0 30 -3 6 -5 -1 -5 -18z"/>
<path d="M2990 3126 c0 -2 8 -10 18 -17 15 -13 16 -12 3 4 -13 16 -21 21 -21
13z"/>
<path d="M4096 3121 c-3 -5 1 -11 9 -14 9 -4 12 -1 8 9 -6 16 -10 17 -17 5z"/>
<path d="M5781 3104 c0 -11 3 -14 6 -6 3 7 2 16 -1 19 -3 4 -6 -2 -5 -13z"/>
<path d="M8380 3106 c0 -3 9 -10 20 -16 11 -6 20 -8 20 -6 0 3 -9 10 -20 16
-11 6 -20 8 -20 6z"/>
<path d="M2765 3075 c-23 -18 -42 -24 -81 -25 -146 -1 -310 -75 -430 -195
-150 -149 -215 -321 -215 -567 0 -139 12 -213 51 -320 105 -287 340 -448 655
-448 349 0 603 201 685 541 10 45 21 84 24 86 3 3 17 -4 33 -14 39 -27 53 -35
53 -30 0 3 -20 18 -45 34 -25 15 -45 33 -45 38 0 6 12 28 26 50 l25 40 -26
-30 -26 -30 6 35 c11 60 -14 238 -46 335 -43 129 -94 209 -207 322 -54 54
-117 121 -141 148 -44 52 -22 20 38 -55 l34 -42 -62 32 c-79 39 -197 70 -270
70 l-56 0 30 25 c17 13 28 24 25 25 -3 0 -18 -11 -35 -25z m73 -367 c50 -57
106 -119 126 -138 l36 -34 38 39 37 40 -38 -35 -37 -34 -41 40 c-22 21 -75 79
-117 128 l-76 89 51 -6 c147 -17 269 -151 309 -335 7 -37 14 -116 14 -177 0
-188 -39 -312 -127 -406 -58 -62 -120 -95 -205 -108 -263 -43 -457 167 -458
494 l0 80 86 70 c47 38 93 78 102 89 9 11 -23 -14 -73 -55 -119 -100 -120
-100 -111 -59 3 19 16 45 29 59 l22 26 -22 -19 c-27 -23 -27 -24 -7 45 49 165
160 275 301 299 27 4 53 8 60 9 6 0 52 -45 101 -101z"/>
<path d="M2536 2585 c-36 -31 -66 -59 -66 -61 0 -3 30 20 66 51 54 46 69 54
81 44 8 -7 12 -21 10 -31 -3 -10 -1 -16 4 -12 15 9 10 30 -10 48 -18 16 -22
14 -85 -39z"/>
<path d="M2579 2543 l-24 -28 28 24 c25 23 32 31 24 31 -2 0 -14 -12 -28 -27z"/>
<path d="M2429 2493 l-24 -28 28 24 c25 23 32 31 24 31 -2 0 -14 -12 -28 -27z"/>
<path d="M8333 3085 c-3 -9 -3 -18 -1 -21 3 -3 8 4 11 16 6 23 -1 27 -10 5z"/>
<path d="M4167 3069 c7 -7 15 -10 18 -7 3 3 -2 9 -12 12 -14 6 -15 5 -6 -5z"/>
<path d="M4831 3064 c0 -11 3 -14 6 -6 3 7 2 16 -1 19 -3 4 -6 -2 -5 -13z"/>
<path d="M8430 3076 c0 -3 14 -12 30 -21 17 -9 30 -13 30 -11 0 3 -13 12 -30
21 -16 9 -30 13 -30 11z"/>
<path d="M5473 3035 c0 -22 2 -30 4 -17 2 12 2 30 0 40 -3 9 -5 -1 -4 -23z"/>
<path d="M6414 3044 c-18 -14 -18 -15 4 -4 12 6 22 13 22 15 0 8 -5 6 -26 -11z"/>
<path d="M8350 3056 c0 -3 9 -10 20 -16 11 -6 20 -8 20 -6 0 3 -9 10 -20 16
-11 6 -20 8 -20 6z"/>
<path d="M4062 3030 c-118 -31 -207 -84 -298 -175 -83 -83 -125 -147 -163
-249 -26 -69 -51 -183 -51 -229 0 -18 -12 -50 -26 -72 -25 -40 -25 -40 -1 -11
l25 28 2 -83 c3 -104 6 -140 13 -159 3 -8 17 -51 32 -95 68 -204 213 -355 407
-426 43 -16 55 -25 52 -38 -5 -15 -5 -15 5 0 9 14 18 15 48 8 71 -16 254 -11
337 11 246 63 425 245 491 500 59 227 26 503 -81 683 -19 32 -32 62 -29 67 3
4 -5 10 -16 13 -11 3 -23 14 -26 24 -11 40 -249 193 -300 193 -7 0 -13 3 -13
8 0 9 -17 11 -190 17 -123 4 -156 2 -218 -15z m257 -230 c83 -14 146 -47 202
-107 89 -94 129 -222 129 -408 0 -189 -38 -311 -127 -405 -59 -63 -120 -96
-205 -109 -264 -43 -457 167 -458 497 0 82 0 83 23 72 21 -11 21 -11 -2 8
l-23 19 15 78 c40 196 157 328 314 355 27 4 53 8 58 9 6 0 39 -4 74 -9z"/>
<path d="M4307 2705 c-24 -50 -20 -58 4 -12 11 22 19 41 17 43 -3 2 -12 -12
-21 -31z"/>
<path d="M4237 2555 c-24 -50 -20 -58 4 -12 11 22 19 41 17 43 -3 2 -12 -12
-21 -31z"/>
<path d="M4167 2405 c-24 -50 -20 -58 4 -12 11 22 19 41 17 43 -3 2 -12 -12
-21 -31z"/>
<path d="M3933 2313 c3 -5 37 -24 76 -43 42 -20 71 -40 71 -49 1 -17 39 47 39
64 0 6 -7 -2 -15 -17 l-15 -28 -80 41 c-45 22 -79 36 -76 32z"/>
<path d="M4160 2200 c8 -5 20 -10 25 -10 6 0 3 5 -5 10 -8 5 -19 10 -25 10 -5
0 -3 -5 5 -10z"/>
<path d="M4230 2170 c8 -5 20 -10 25 -10 6 0 3 5 -5 10 -8 5 -19 10 -25 10 -5
0 -3 -5 5 -10z"/>
<path d="M4310 2140 c8 -5 20 -10 25 -10 6 0 3 5 -5 10 -8 5 -19 10 -25 10 -5
0 -3 -5 5 -10z"/>
<path d="M4022 2095 c-30 -62 -27 -71 4 -12 14 27 24 51 22 53 -3 2 -14 -17
-26 -41z"/>
<path d="M4478 2083 c7 -3 16 -2 19 1 4 3 -2 6 -13 5 -11 0 -14 -3 -6 -6z"/>
<path d="M4548 2063 c7 -3 16 -2 19 1 4 3 -2 6 -13 5 -11 0 -14 -3 -6 -6z"/>
<path d="M4588 2053 c7 -3 16 -2 19 1 4 3 -2 6 -13 5 -11 0 -14 -3 -6 -6z"/>
<path d="M3962 1965 c-17 -37 -14 -45 4 -12 9 16 14 31 11 33 -2 2 -9 -7 -15
-21z"/>
<path d="M4531 1944 c0 -11 3 -14 6 -6 3 7 2 16 -1 19 -3 4 -6 -2 -5 -13z"/>
<path d="M4521 1904 c0 -11 3 -14 6 -6 3 7 2 16 -1 19 -3 4 -6 -2 -5 -13z"/>
<path d="M5151 3038 c0 -10 -8 -18 -16 -18 -13 0 -15 -22 -15 -134 0 -132 0
-135 -22 -139 -23 -4 -23 -4 1 -6 23 -1 23 -2 20 -103 -1 -57 -2 -325 -1 -595
l2 -493 150 0 150 0 0 263 0 263 75 74 c41 41 76 72 79 69 2 -2 39 -56 83
-120 43 -63 129 -189 191 -278 86 -124 111 -166 100 -172 -10 -7 -8 -9 7 -9
12 0 32 -18 50 -45 l30 -45 179 0 178 0 -18 28 c-10 15 -80 116 -156 226 -76
109 -138 208 -139 220 0 11 -3 15 -6 8 -3 -8 -13 0 -27 20 -12 18 -75 108
-139 200 -64 92 -117 170 -117 175 0 10 558 575 585 591 11 7 14 10 7 7 -7 -4
-101 -6 -208 -5 l-196 1 -115 -121 c-74 -76 -123 -120 -137 -121 -17 0 -18 -2
-5 -7 13 -5 -19 -44 -142 -172 l-158 -165 -1 293 0 292 -129 0 c-115 0 -130 2
-134 18 -4 16 -5 16 -6 0z"/>
<path d="M4821 3024 c0 -11 3 -14 6 -6 3 7 2 16 -1 19 -3 4 -6 -2 -5 -13z"/>
<path d="M8505 3031 c5 -9 -6 -12 -46 -11 -30 1 -183 1 -341 1 l-288 -1 0
-562 0 -563 -51 55 -51 55 51 -61 c42 -51 51 -68 51 -100 l0 -39 -51 55 -51
55 51 -61 51 -62 0 -121 0 -121 155 0 155 0 2 268 3 267 250 5 c209 5 258 9
300 24 212 78 320 263 294 507 -22 198 -178 356 -391 393 -41 7 -81 17 -88 21
-9 6 -11 4 -5 -4z m-1 -281 c115 -19 176 -88 176 -200 0 -64 -24 -123 -66
-162 -40 -37 -71 -47 -170 -54 -80 -7 -86 -6 -112 17 -25 22 -25 22 -8 2 l19
-23 -38 0 c-26 0 -47 8 -64 23 l-26 22 19 -22 19 -23 -56 0 -56 0 1 80 c0 44
4 80 7 80 4 0 27 -16 52 -36 35 -29 34 -26 -9 13 l-52 48 0 116 c0 64 3 119 7
122 10 11 290 8 357 -3z"/>
<path d="M8180 2395 c13 -14 26 -25 28 -25 3 0 -5 11 -18 25 -13 14 -26 25
-28 25 -3 0 5 -11 18 -25z"/>
<path d="M8270 2395 c13 -14 26 -25 28 -25 3 0 -5 11 -18 25 -13 14 -26 25
-28 25 -3 0 5 -11 18 -25z"/>
<path d="M1020 2285 l0 -735 495 0 495 0 0 125 0 125 -345 0 -345 0 0 610 0
610 -150 0 -150 0 0 -735z"/>
<path d="M6480 2698 c0 -234 -3 -319 -11 -308 -9 12 -9 11 -3 -5 5 -11 10
-117 11 -235 2 -118 8 -238 13 -266 17 -80 65 -170 120 -224 99 -97 238 -140
448 -140 123 0 130 -1 146 -22 16 -23 16 -23 6 -1 -5 12 -10 24 -10 27 0 11
46 6 59 -6 10 -11 11 -10 6 4 -5 12 1 18 27 23 94 20 211 104 265 189 36 56
62 139 70 218 l6 69 26 -23 c25 -22 25 -22 -1 8 -21 22 -28 41 -28 69 l0 38
28 -24 27 -24 -27 31 -28 30 0 447 0 447 -155 0 -155 0 0 -537 c0 -499 -2
-541 -19 -578 -25 -55 -72 -100 -127 -121 -50 -19 -48 -20 -80 32 -9 16 -15
17 -38 6 -21 -9 -25 -17 -21 -35 6 -24 6 -24 -49 -16 -79 10 -134 44 -165 102
l-26 47 25 21 c24 20 24 20 2 9 -13 -6 -27 -9 -30 -5 -8 7 -12 265 -12 753 l0
322 -150 0 -150 0 0 -322z m618 -902 c9 -21 8 -24 -14 -29 -30 -5 -56 29 -33
44 23 14 35 10 47 -15z"/>
<path d="M5811 2994 c0 -11 3 -14 6 -6 3 7 2 16 -1 19 -3 4 -6 -2 -5 -13z"/>
<path d="M4801 2954 c0 -11 3 -14 6 -6 3 7 2 16 -1 19 -3 4 -6 -2 -5 -13z"/>
<path d="M5821 2954 c0 -11 3 -14 6 -6 3 7 2 16 -1 19 -3 4 -6 -2 -5 -13z"/>
<path d="M5483 2915 c0 -22 2 -30 4 -17 2 12 2 30 0 40 -3 9 -5 -1 -4 -23z"/>
<path d="M4791 2914 c0 -11 3 -14 6 -6 3 7 2 16 -1 19 -3 4 -6 -2 -5 -13z"/>
<path d="M4781 2874 c0 -11 3 -14 6 -6 3 7 2 16 -1 19 -3 4 -6 -2 -5 -13z"/>
<path d="M5493 2810 c0 -25 2 -35 4 -22 2 12 2 32 0 45 -2 12 -4 2 -4 -23z"/>
<path d="M6251 2845 c0 -5 8 -26 19 -45 11 -19 19 -30 19 -25 0 6 -8 26 -19
45 -11 19 -19 31 -19 25z"/>
<path d="M4848 2783 c7 -3 16 -2 19 1 4 3 -2 6 -13 5 -11 0 -14 -3 -6 -6z"/>
<path d="M4898 2773 c7 -3 16 -2 19 1 4 3 -2 6 -13 5 -11 0 -14 -3 -6 -6z"/>
<path d="M4948 2763 c6 -2 18 -2 25 0 6 3 1 5 -13 5 -14 0 -19 -2 -12 -5z"/>
<path d="M5658 2763 c6 -2 18 -2 25 0 6 3 1 5 -13 5 -14 0 -19 -2 -12 -5z"/>
<path d="M5013 2753 c9 -2 23 -2 30 0 6 3 -1 5 -18 5 -16 0 -22 -2 -12 -5z"/>
<path d="M5593 2753 c9 -2 23 -2 30 0 6 3 -1 5 -18 5 -16 0 -22 -2 -12 -5z"/>
<path d="M5513 2743 c9 -2 23 -2 30 0 6 3 -1 5 -18 5 -16 0 -22 -2 -12 -5z"/>
<path d="M6321 2695 c0 -5 11 -30 24 -55 13 -25 24 -40 24 -35 0 6 -11 30 -24
55 -13 25 -24 41 -24 35z"/>
<path d="M5931 2544 c0 -11 3 -14 6 -6 3 7 2 16 -1 19 -3 4 -6 -2 -5 -13z"/>
<path d="M6391 2545 c0 -5 8 -26 19 -45 11 -19 19 -30 19 -25 0 6 -8 26 -19
45 -11 19 -19 31 -19 25z"/>
<path d="M7000 2445 c17 -25 33 -45 36 -45 3 0 -9 20 -26 45 -17 25 -33 45
-36 45 -3 0 9 -20 26 -45z"/>
<path d="M5103 2445 c0 -22 2 -30 4 -17 2 12 2 30 0 40 -3 9 -5 -1 -4 -23z"/>
<path d="M6922 2456 c-46 -33 -53 -43 -14 -20 19 10 38 25 44 32 15 17 8 14
-30 -12z"/>
<path d="M5971 2394 c0 -11 3 -14 6 -6 3 7 2 16 -1 19 -3 4 -6 -2 -5 -13z"/>
<path d="M6814 2384 c-18 -14 -18 -15 4 -4 12 6 22 13 22 15 0 8 -5 6 -26 -11z"/>
<path d="M7070 2345 c17 -25 33 -45 36 -45 3 0 -9 20 -26 45 -17 25 -33 45
-36 45 -3 0 9 -20 26 -45z"/>
<path d="M5093 2330 c0 -25 2 -35 4 -22 2 12 2 32 0 45 -2 12 -4 2 -4 -23z"/>
<path d="M6001 2284 c0 -11 3 -14 6 -6 3 7 2 16 -1 19 -3 4 -6 -2 -5 -13z"/>
<path d="M7140 2245 c17 -25 33 -45 36 -45 3 0 -9 20 -26 45 -17 25 -33 45
-36 45 -3 0 9 -20 26 -45z"/>
<path d="M5082 2220 c0 -19 2 -27 5 -17 2 9 2 25 0 35 -3 9 -5 1 -5 -18z"/>
<path d="M6430 2190 c-8 -5 -10 -10 -5 -10 6 0 17 5 25 10 8 5 11 10 5 10 -5
0 -17 -5 -25 -10z"/>
<path d="M6031 2174 c0 -11 3 -14 6 -6 3 7 2 16 -1 19 -3 4 -6 -2 -5 -13z"/>
<path d="M7183 2183 c4 -3 1 -13 -6 -22 -11 -14 -10 -14 5 -2 16 12 16 31 1
31 -4 0 -3 -3 0 -7z"/>
<path d="M6380 2170 c-8 -5 -10 -10 -5 -10 6 0 17 5 25 10 8 5 11 10 5 10 -5
0 -17 -5 -25 -10z"/>
<path d="M6330 2150 c-8 -5 -10 -10 -5 -10 6 0 17 5 25 10 8 5 11 10 5 10 -5
0 -17 -5 -25 -10z"/>
<path d="M6041 2134 c0 -11 3 -14 6 -6 3 7 2 16 -1 19 -3 4 -6 -2 -5 -13z"/>
<path d="M5073 2105 c0 -22 2 -30 4 -17 2 12 2 30 0 40 -3 9 -5 -1 -4 -23z"/>
<path d="M7093 2109 c-35 -22 -46 -37 -15 -20 22 13 58 40 52 41 -3 0 -20 -10
-37 -21z"/>
<path d="M6138 2083 c7 -3 16 -2 19 1 4 3 -2 6 -13 5 -11 0 -14 -3 -6 -6z"/>
<path d="M7024 2064 c-18 -14 -18 -15 4 -4 12 6 22 13 22 15 0 8 -5 6 -26 -11z"/>
<path d="M6060 2060 c0 -5 7 -7 15 -4 8 4 15 8 15 10 0 2 -7 4 -15 4 -8 0 -15
-4 -15 -10z"/>
<path d="M7700 2035 c13 -14 26 -25 28 -25 3 0 -5 11 -18 25 -13 14 -26 25
-28 25 -3 0 5 -11 18 -25z"/>
<path d="M6974 2034 c-18 -14 -18 -15 4 -4 12 6 22 13 22 15 0 8 -5 6 -26 -11z"/>
<path d="M5060 2005 c0 -17 -6 -25 -17 -26 -14 0 -15 -2 -3 -6 8 -3 18 -11 22
-17 4 -6 8 8 8 32 0 23 -2 42 -5 42 -3 0 -5 -11 -5 -25z"/>
<path d="M6904 1994 c-18 -14 -18 -15 4 -4 12 6 22 13 22 15 0 8 -5 6 -26 -11z"/>
<path d="M4953 1983 c9 -2 23 -2 30 0 6 3 -1 5 -18 5 -16 0 -22 -2 -12 -5z"/>
<path d="M5566 1971 c-4 -5 3 -7 14 -4 23 6 26 13 6 13 -8 0 -17 -4 -20 -9z"/>
<path d="M7700 1945 c13 -14 26 -25 28 -25 3 0 -5 11 -18 25 -13 14 -26 25
-28 25 -3 0 5 -11 18 -25z"/>
<path d="M5053 1880 c0 -25 2 -35 4 -22 2 12 2 32 0 45 -2 12 -4 2 -4 -23z"/>
<path d="M3516 1834 c-5 -13 -4 -14 7 -6 8 7 18 8 22 4 5 -4 5 -1 1 6 -10 17
-23 15 -30 -4z"/>
<path d="M3564 1810 c0 -13 4 -16 10 -10 7 7 7 13 0 20 -6 6 -10 3 -10 -10z"/>
<path d="M3485 1780 c-9 -16 -13 -30 -11 -30 3 0 12 14 21 30 9 17 13 30 11
30 -3 0 -12 -13 -21 -30z"/>
<path d="M5043 1765 c0 -22 2 -30 4 -17 2 12 2 30 0 40 -3 9 -5 -1 -4 -23z"/>
<path d="M3535 1750 c-9 -16 -13 -30 -11 -30 3 0 12 14 21 30 9 17 13 30 11
30 -3 0 -12 -13 -21 -30z"/>
<path d="M3445 1710 c-9 -16 -13 -30 -11 -30 3 0 12 14 21 30 9 17 13 30 11
30 -3 0 -12 -13 -21 -30z"/>
<path d="M3500 1690 c-6 -11 -8 -20 -6 -20 3 0 10 9 16 20 6 11 8 20 6 20 -3
0 -10 -9 -16 -20z"/>
<path d="M5592 1660 c0 -19 2 -27 5 -17 2 9 2 25 0 35 -3 9 -5 1 -5 -18z"/>
<path d="M5033 1645 c0 -22 2 -30 4 -17 2 12 2 30 0 40 -3 9 -5 -1 -4 -23z"/>
<path d="M3410 1650 c-6 -11 -8 -20 -6 -20 3 0 10 9 16 20 6 11 8 20 6 20 -3
0 -10 -9 -16 -20z"/>
<path d="M3460 1620 c-6 -11 -8 -20 -6 -20 3 0 10 9 16 20 6 11 8 20 6 20 -3
0 -10 -9 -16 -20z"/>
<path d="M4718 1633 c7 -3 16 -2 19 1 4 3 -2 6 -13 5 -11 0 -14 -3 -6 -6z"/>
<path d="M5898 1633 c6 -2 18 -2 25 0 6 3 1 5 -13 5 -14 0 -19 -2 -12 -5z"/>
<path d="M4768 1623 c6 -2 18 -2 25 0 6 3 1 5 -13 5 -14 0 -19 -2 -12 -5z"/>
<path d="M5838 1623 c6 -2 18 -2 25 0 6 3 1 5 -13 5 -14 0 -19 -2 -12 -5z"/>
<path d="M4833 1613 c9 -2 23 -2 30 0 6 3 -1 5 -18 5 -16 0 -22 -2 -12 -5z"/>
<path d="M5773 1613 c9 -2 23 -2 30 0 6 3 -1 5 -18 5 -16 0 -22 -2 -12 -5z"/>
<path d="M4903 1603 c9 -2 23 -2 30 0 6 3 -1 5 -18 5 -16 0 -22 -2 -12 -5z"/>
<path d="M5703 1603 c9 -2 23 -2 30 0 6 3 -1 5 -18 5 -16 0 -22 -2 -12 -5z"/>
<path d="M3370 1580 c-6 -11 -8 -20 -6 -20 3 0 10 9 16 20 6 11 8 20 6 20 -3
0 -10 -9 -16 -20z"/>
<path d="M4973 1593 c9 -2 23 -2 30 0 6 3 -1 5 -18 5 -16 0 -22 -2 -12 -5z"/>
<path d="M5618 1593 c12 -2 30 -2 40 0 9 3 -1 5 -23 4 -22 0 -30 -2 -17 -4z"/>
<path d="M3425 1560 c-9 -16 -13 -30 -11 -30 3 0 12 14 21 30 9 17 13 30 11
30 -3 0 -12 -13 -21 -30z"/>
<path d="M6500 1566 c0 -2 9 -6 20 -9 11 -3 18 -1 14 4 -5 9 -34 13 -34 5z"/>
<path d="M3335 1520 c-9 -16 -13 -30 -11 -30 3 0 12 14 21 30 9 17 13 30 11
30 -3 0 -12 -13 -21 -30z"/>
<path d="M3385 1490 c-9 -16 -13 -30 -11 -30 3 0 12 14 21 30 9 17 13 30 11
30 -3 0 -12 -13 -21 -30z"/>
<path d="M7280 1480 c6 -11 13 -20 16 -20 2 0 0 9 -6 20 -6 11 -13 20 -16 20
-2 0 0 -9 6 -20z"/>
<path d="M3300 1460 c-6 -11 -8 -20 -6 -20 3 0 10 9 16 20 6 11 8 20 6 20 -3
0 -10 -9 -16 -20z"/>
<path d="M6560 1475 c0 -5 5 -17 10 -25 5 -8 10 -10 10 -5 0 6 -5 17 -10 25
-5 8 -10 11 -10 5z"/>
<path d="M7230 1450 c6 -11 13 -20 16 -20 2 0 0 9 -6 20 -6 11 -13 20 -16 20
-2 0 0 -9 6 -20z"/>
<path d="M3350 1430 c-6 -11 -8 -20 -6 -20 3 0 10 9 16 20 6 11 8 20 6 20 -3
0 -10 -9 -16 -20z"/>
<path d="M4016 1425 c-9 -26 -7 -32 5 -12 6 10 9 21 6 23 -2 3 -7 -2 -11 -11z"/>
<path d="M7320 1410 c6 -11 13 -20 16 -20 2 0 0 9 -6 20 -6 11 -13 20 -16 20
-2 0 0 -9 6 -20z"/>
<path d="M6520 1415 c0 -5 5 -17 10 -25 5 -8 10 -10 10 -5 0 6 -5 17 -10 25
-5 8 -10 11 -10 5z"/>
<path d="M3263 1395 c-3 -9 -3 -18 -1 -21 3 -3 8 4 11 16 6 23 -1 27 -10 5z"/>
<path d="M7270 1380 c6 -11 13 -20 16 -20 2 0 0 9 -6 20 -6 11 -13 20 -16 20
-2 0 0 -9 6 -20z"/>
<path d="M3315 1369 c-4 -6 -14 -8 -22 -5 -8 3 -11 1 -8 -4 9 -15 32 -12 39 5
6 17 0 20 -9 4z"/>
<path d="M7340 1373 c0 -6 -12 -16 -27 -21 -16 -6 -21 -11 -12 -11 20 -1 56
25 46 35 -4 4 -7 2 -7 -3z"/>
<path d="M6606 1350 c3 -14 11 -32 16 -40 6 -10 7 -7 2 10 -3 14 -11 32 -16
40 -6 10 -7 7 -2 -10z"/>
<path d="M3976 1315 c-9 -26 -7 -32 5 -12 6 10 9 21 6 23 -2 3 -7 -2 -11 -11z"/>
<path d="M6560 1305 c0 -5 5 -17 10 -25 5 -8 10 -10 10 -5 0 6 -5 17 -10 25
-5 8 -10 11 -10 5z"/>
<path d="M6640 1255 c0 -5 5 -17 10 -25 5 -8 10 -10 10 -5 0 6 -5 17 -10 25
-5 8 -10 11 -10 5z"/>
<path d="M3941 1219 c-6 -18 -9 -34 -7 -36 2 -2 9 10 15 28 6 18 9 34 7 36 -2
2 -9 -10 -15 -28z"/>
<path d="M6600 1195 c0 -5 5 -17 10 -25 5 -8 10 -10 10 -5 0 6 -5 17 -10 25
-5 8 -10 11 -10 5z"/>
<path d="M3986 1175 c-9 -26 -7 -32 5 -12 6 10 9 21 6 23 -2 3 -7 -2 -11 -11z"/>
<path d="M6680 1145 c0 -5 5 -17 10 -25 5 -8 10 -10 10 -5 0 6 -5 17 -10 25
-5 8 -10 11 -10 5z"/>
<path d="M3906 1125 c-9 -26 -7 -32 5 -12 6 10 9 21 6 23 -2 3 -7 -2 -11 -11z"/>
<path d="M6640 1084 c0 -5 6 -18 13 -27 9 -12 16 -14 27 -6 13 9 13 10 0 6 -8
-2 -20 5 -27 17 -7 12 -12 16 -13 10z"/>
<path d="M3946 1063 c-6 -14 -5 -15 5 -6 7 7 10 15 7 18 -3 3 -9 -2 -12 -12z"/>
</g>
</svg>
